<svg width="279" height="121" viewBox="0 0 279 121" fill="none" xmlns="http://www.w3.org/2000/svg">
<path d="M92.1258 24.1C96.5925 25.7 98.8258 27.8333 98.8258 30.5C98.8258 31.3667 98.4258 33 97.6258 35.4L78.4258 90.9C78.2925 91.3667 78.0591 91.9333 77.7258 92.6C77.3925 93.2667 76.4925 94.1667 75.0258 95.3C73.6258 96.3667 71.9258 96.9 69.9258 96.9C67.9925 96.9 66.2925 96.3667 64.8258 95.3C63.4258 94.1667 62.4925 93.0667 62.0258 92L50.3258 57.5C42.9258 79.3667 39.1591 90.5 39.0258 90.9C38.8924 91.3 38.5924 91.8667 38.1258 92.6C37.6591 93.3333 37.1258 94 36.5258 94.6C34.9925 96.1333 33.1591 96.9 31.0258 96.9C28.8924 96.9 27.1258 96.4 25.7258 95.4C24.3924 94.4 23.4924 93.4 23.0258 92.4L22.3258 90.9L3.02578 35.4C2.29245 33.2 1.92578 31.5667 1.92578 30.5C1.92578 27.8333 4.15911 25.7333 8.62578 24.2C10.5591 23.5333 12.2924 23.2 13.8258 23.2C15.4258 23.2 16.6258 23.7333 17.4258 24.8C18.2924 25.8667 19.0591 27.5 19.7258 29.7L30.7258 63.1L41.6258 30.2C42.5591 27.4 44.2591 25.4667 46.7258 24.4C47.7925 23.9333 49.1591 23.7 50.8258 23.7C52.5591 23.7 54.1591 24.2667 55.6258 25.4C57.0924 26.4667 58.0258 27.5333 58.4258 28.6L69.9258 63.3L80.9258 29.7C81.4591 28.1667 81.8925 27.0333 82.2258 26.3C82.5591 25.5667 83.1591 24.8667 84.0258 24.2C84.9591 23.4667 86.0925 23.1 87.4258 23.1C88.7591 23.1 90.3258 23.4333 92.1258 24.1ZM101.797 70.7C101.797 62.7 104.597 56.1 110.197 50.9C115.797 45.7 122.197 43.1 129.397 43.1C136.597 43.1 142.964 45.7 148.497 50.9C154.03 56.0333 156.797 62.6 156.797 70.6C156.797 76.1333 155.364 81.0667 152.497 85.4C149.63 89.6667 146.13 92.8333 141.997 94.9C137.93 96.9 133.697 97.9 129.297 97.9C124.897 97.9 120.63 96.8333 116.497 94.7C112.364 92.5 108.864 89.3 105.997 85.1C103.197 80.8333 101.797 76.0333 101.797 70.7ZM122.697 77.9C124.83 79.5 126.997 80.3 129.197 80.3C131.397 80.3 133.597 79.4667 135.797 77.8C137.997 76.1333 139.097 73.6667 139.097 70.4C139.097 67.1333 138.064 64.7 135.997 63.1C133.93 61.5 131.697 60.7 129.297 60.7C126.897 60.7 124.664 61.5333 122.597 63.2C120.53 64.8667 119.497 67.3333 119.497 70.6C119.497 73.8 120.564 76.2333 122.697 77.9ZM205.058 44.9C206.324 45.3 207.358 46 208.158 47C209.024 47.9333 209.458 49.4667 209.458 51.6C209.458 53.7333 208.824 56.0667 207.558 58.6C206.291 61.1333 204.458 62.4 202.058 62.4C200.858 62.4 199.691 62.1333 198.558 61.6C197.491 61.0667 196.058 60.8 194.258 60.8C192.458 60.8 190.758 61.4333 189.158 62.7C187.624 63.9667 186.858 65.5 186.858 67.3V88.3C186.858 89.8333 186.791 91 186.658 91.8C186.591 92.5333 186.291 93.4 185.758 94.4C184.758 96.1333 182.158 97 177.958 97C174.758 97 172.458 96.4333 171.058 95.3C169.991 94.3667 169.391 92.9333 169.258 91C169.258 90.3333 169.258 89.3667 169.258 88.1V53C169.258 51.4667 169.291 50.3333 169.358 49.6C169.491 48.8 169.791 47.9333 170.258 47C171.191 45.2 173.791 44.3 178.058 44.3C182.058 44.3 184.558 45.0667 185.558 46.6C186.291 47.6667 186.658 48.7667 186.658 49.9C186.991 49.4333 187.458 48.8667 188.058 48.2C188.724 47.5333 190.091 46.6333 192.158 45.5C194.224 44.3667 196.024 43.8 197.558 43.8C199.158 43.8 200.491 43.9 201.558 44.1C202.624 44.2333 203.791 44.5 205.058 44.9ZM251.961 70.6L265.261 81.6C266.928 83 267.961 84.0667 268.361 84.8C268.828 85.5333 269.061 86.2333 269.061 86.9C269.061 88.5 268.028 90.6667 265.961 93.4C263.694 96.2 261.694 97.6 259.961 97.6C258.494 97.6 256.461 96.6333 253.861 94.7L252.861 94C251.328 92.7333 248.961 90.5333 245.761 87.4C242.561 84.2 240.128 81.9333 238.461 80.6V88.3C238.461 89.8333 238.394 91 238.261 91.8C238.194 92.5333 237.894 93.4 237.361 94.4C236.494 96.1333 233.928 97 229.661 97C225.461 97 222.894 96.1 221.961 94.3C221.494 93.3 221.194 92.4333 221.061 91.7C220.994 90.9 220.961 89.7333 220.961 88.2V28.3C220.961 26.7667 220.994 25.6333 221.061 24.9C221.194 24.1 221.494 23.2 221.961 22.2C222.894 20.4 225.494 19.5 229.761 19.5C232.961 19.5 235.228 20.0667 236.561 21.2C237.694 22.1333 238.294 23.6 238.361 25.6C238.428 26.2 238.461 27.1333 238.461 28.4V60.1C239.661 59.1 241.461 57.4 243.861 55C246.328 52.6 248.161 50.9 249.361 49.9L250.561 49.1C252.894 47.3 254.894 46.4 256.561 46.4C258.228 46.4 260.128 47.7667 262.261 50.5C264.461 53.1667 265.561 55.2667 265.561 56.8C265.561 58.3333 264.328 60.1333 261.861 62.2L251.961 70.6Z" fill="#2644F5"/>
<path d="M100.126 24.1L99.7785 25.0378L99.7886 25.0414L100.126 24.1ZM105.626 35.4L106.571 35.727L106.574 35.7162L105.626 35.4ZM86.4258 90.9L85.4807 90.5731L85.4718 90.5989L85.4643 90.6253L86.4258 90.9ZM85.7258 92.6L86.6202 93.0472V93.0472L85.7258 92.6ZM83.0258 95.3L83.6318 96.0955L83.6372 96.0913L83.0258 95.3ZM72.8258 95.3L72.1966 96.0772L72.2167 96.0935L72.2376 96.1087L72.8258 95.3ZM70.0258 92L69.0788 92.3212L69.0925 92.3616L69.1096 92.4008L70.0258 92ZM58.3258 57.5L59.2728 57.1788L58.3248 54.3834L57.3786 57.1794L58.3258 57.5ZM47.0258 90.9L46.0771 90.5838L47.0258 90.9ZM46.1258 92.6L45.2821 92.0631L46.1258 92.6ZM44.5258 94.6L45.2329 95.3071L44.5258 94.6ZM33.7258 95.4L33.1258 96.2L33.1351 96.207L33.1445 96.2137L33.7258 95.4ZM31.0258 92.4L31.932 91.9771L31.0258 92.4ZM30.3258 90.9L29.3813 91.2285L29.398 91.2766L29.4196 91.3229L30.3258 90.9ZM11.0258 35.4L10.077 35.7162L10.0813 35.7285L11.0258 35.4ZM16.6258 24.2L16.9505 25.1458L16.9518 25.1454L16.6258 24.2ZM25.4258 24.8L24.6258 25.4L24.6374 25.4155L24.6497 25.4306L25.4258 24.8ZM27.7258 29.7L26.7688 29.99L26.7722 30.0014L26.776 30.0128L27.7258 29.7ZM38.7258 63.1L37.776 63.4128L38.723 66.2882L39.675 63.4145L38.7258 63.1ZM49.6258 30.2L48.6771 29.8838L48.6765 29.8855L49.6258 30.2ZM54.7258 24.4L55.1227 25.3179L55.1266 25.3162L54.7258 24.4ZM63.6258 25.4L63.0143 26.1913L63.0258 26.2002L63.0376 26.2087L63.6258 25.4ZM66.4258 28.6L67.375 28.2854L67.3689 28.267L67.3621 28.2489L66.4258 28.6ZM77.9258 63.3L76.9766 63.6146L77.9316 66.4963L78.8762 63.6111L77.9258 63.3ZM88.9258 29.7L87.9813 29.3715L87.9783 29.3801L87.9754 29.3889L88.9258 29.7ZM90.2258 26.3L91.1361 26.7138V26.7138L90.2258 26.3ZM92.0258 24.2L92.6355 24.9927L92.6436 24.9863L92.0258 24.2ZM99.7886 25.0414C104.196 26.6203 105.826 28.5275 105.826 30.5H107.826C107.826 27.1391 104.989 24.7797 100.463 23.1586L99.7886 25.0414ZM105.826 30.5C105.826 30.8097 105.75 31.34 105.554 32.1371C105.363 32.9178 105.072 33.8981 104.677 35.0838L106.574 35.7162C106.979 34.5019 107.288 33.4655 107.497 32.6129C107.702 31.7767 107.826 31.057 107.826 30.5H105.826ZM104.681 35.0731L85.4807 90.5731L87.3708 91.2269L106.571 35.7269L104.681 35.0731ZM85.4643 90.6253C85.3544 91.0099 85.15 91.5154 84.8314 92.1528L86.6202 93.0472C86.9682 92.3512 87.2305 91.7234 87.3873 91.1747L85.4643 90.6253ZM84.8314 92.1528C84.735 92.3455 84.5134 92.6481 84.0937 93.0679C83.6839 93.4777 83.1277 93.9575 82.4143 94.5087L83.6372 96.0913C84.3905 95.5092 85.0177 94.9723 85.5079 94.4821C85.9881 94.0019 86.3832 93.5212 86.6202 93.0472L84.8314 92.1528ZM82.4197 94.5046C81.2172 95.4208 79.7381 95.9 77.9258 95.9V97.9C80.1135 97.9 82.0343 97.3126 83.6318 96.0954L82.4197 94.5046ZM77.9258 95.9C76.189 95.9 74.6981 95.4252 73.414 94.4913L72.2376 96.1087C73.8868 97.3081 75.7959 97.9 77.9258 97.9V95.9ZM73.455 94.5228C72.1177 93.4402 71.3188 92.4606 70.9419 91.5992L69.1096 92.4008C69.6661 93.6728 70.7339 94.8932 72.1966 96.0772L73.455 94.5228ZM70.9728 91.6788L59.2728 57.1788L57.3788 57.8212L69.0788 92.3212L70.9728 91.6788ZM57.3786 57.1794C49.9795 79.0434 46.2114 90.1809 46.0771 90.5838L47.9745 91.2162C48.1068 90.8191 51.8721 79.6899 59.273 57.8206L57.3786 57.1794ZM46.0771 90.5838C45.9846 90.8613 45.741 91.3421 45.2821 92.0631L46.9694 93.1369C47.4439 92.3913 47.8003 91.7387 47.9745 91.2162L46.0771 90.5838ZM45.2821 92.0631C44.8537 92.7364 44.3658 93.3457 43.8187 93.8929L45.2329 95.3071C45.8857 94.6543 46.4646 93.9303 46.9694 93.1369L45.2821 92.0631ZM43.8187 93.8929C42.4694 95.2422 40.889 95.9 39.0258 95.9V97.9C41.4292 97.9 43.5155 97.0245 45.2329 95.3071L43.8187 93.8929ZM39.0258 95.9C37.0503 95.9 35.5004 95.4387 34.307 94.5863L33.1445 96.2137C34.7511 97.3613 36.7346 97.9 39.0258 97.9V95.9ZM34.3258 94.6C33.0624 93.6525 32.3026 92.7713 31.932 91.9771L30.1196 92.8229C30.6823 94.0287 31.7225 95.1476 33.1258 96.2L34.3258 94.6ZM31.932 91.9771L31.232 90.4771L29.4196 91.3229L30.1196 92.8229L31.932 91.9771ZM31.2703 90.5715L11.9703 35.0715L10.0813 35.7285L29.3813 91.2285L31.2703 90.5715ZM11.9745 35.0838C11.2448 32.8948 10.9258 31.3932 10.9258 30.5H8.92578C8.92578 31.7401 9.3401 33.5052 10.0771 35.7162L11.9745 35.0838ZM10.9258 30.5C10.9258 28.5357 12.5443 26.6584 16.9505 25.1458L16.3011 23.2542C11.7739 24.8083 8.92578 27.1309 8.92578 30.5H10.9258ZM16.9518 25.1454C18.813 24.5036 20.4335 24.2 21.8258 24.2V22.2C20.1514 22.2 18.3052 22.5631 16.2998 23.2546L16.9518 25.1454ZM21.8258 24.2C23.1818 24.2 24.0534 24.6368 24.6258 25.4L26.2258 24.2C25.1982 22.8298 23.6698 22.2 21.8258 22.2V24.2ZM24.6497 25.4306C25.3975 26.351 26.1178 27.8419 26.7688 29.99L28.6828 29.41C28.0004 27.1581 27.1874 25.3823 26.2019 24.1694L24.6497 25.4306ZM26.776 30.0128L37.776 63.4128L39.6756 62.7872L28.6756 29.3872L26.776 30.0128ZM39.675 63.4145L50.575 30.5145L48.6765 29.8855L37.7765 62.7855L39.675 63.4145ZM50.5745 30.5162C51.4277 27.9564 52.9446 26.2597 55.1227 25.3179L54.3289 23.4821C51.5737 24.6736 49.6905 26.8435 48.6771 29.8838L50.5745 30.5162ZM55.1266 25.3162C56.0247 24.9232 57.2421 24.7 58.8258 24.7V22.7C57.0762 22.7 55.5602 22.9434 54.325 23.4838L55.1266 25.3162ZM58.8258 24.7C60.322 24.7 61.7098 25.1832 63.0143 26.1913L64.2372 24.6087C62.6084 23.3501 60.7963 22.7 58.8258 22.7V24.7ZM63.0376 26.2087C64.4317 27.2226 65.1878 28.1468 65.4895 28.9511L67.3621 28.2489C66.8637 26.9199 65.7532 25.7107 64.214 24.5913L63.0376 26.2087ZM65.4766 28.9146L76.9766 63.6146L78.875 62.9854L67.375 28.2854L65.4766 28.9146ZM78.8762 63.6111L89.8762 30.0111L87.9754 29.3889L76.9754 62.9889L78.8762 63.6111ZM89.8703 30.0285C90.4015 28.5013 90.8226 27.4036 91.1361 26.7138L89.3154 25.8862C88.9623 26.6631 88.5168 27.832 87.9813 29.3715L89.8703 30.0285ZM91.1361 26.7138C91.3819 26.1731 91.8543 25.5935 92.6355 24.9926L91.4161 23.4074C90.4639 24.1398 89.7363 24.9602 89.3154 25.8862L91.1361 26.7138ZM92.6436 24.9863C93.3791 24.4084 94.2874 24.1 95.4258 24.1V22.1C93.8975 22.1 92.5391 22.5249 91.408 23.4137L92.6436 24.9863ZM95.4258 24.1C96.6008 24.1 98.0449 24.3957 99.7785 25.0377L100.473 23.1622C98.6066 22.471 96.9175 22.1 95.4258 22.1V24.1ZM118.197 50.9L118.877 51.6328L118.197 50.9ZM156.497 50.9L155.812 51.6287L155.817 51.6331L156.497 50.9ZM160.497 85.4L161.327 85.9577L161.331 85.9517L160.497 85.4ZM149.997 94.9L150.438 95.7974L150.444 95.7944L149.997 94.9ZM124.497 94.7L124.027 95.5828L124.038 95.5886L124.497 94.7ZM113.997 85.1L113.161 85.6487L113.166 85.6562L113.171 85.6637L113.997 85.1ZM130.697 77.9L130.081 78.688L130.089 78.6941L130.097 78.7L130.697 77.9ZM143.797 77.8L143.193 77.0029L143.797 77.8ZM143.997 63.1L143.385 63.8907V63.8907L143.997 63.1ZM130.597 63.2L129.969 62.4216L130.597 63.2ZM110.797 70.7C110.797 62.9634 113.492 56.6338 118.877 51.6328L117.516 50.1672C111.702 55.5662 108.797 62.4366 108.797 70.7H110.797ZM118.877 51.6328C124.305 46.593 130.466 44.1 137.397 44.1V42.1C129.928 42.1 123.289 44.807 117.516 50.1672L118.877 51.6328ZM137.397 44.1C144.327 44.1 150.453 46.5925 155.812 51.6287L157.182 50.1713C151.474 44.8075 144.866 42.1 137.397 42.1V44.1ZM155.817 51.6331C161.133 56.5648 163.797 62.8595 163.797 70.6H165.797C165.797 62.3405 162.928 55.5018 157.177 50.1669L155.817 51.6331ZM163.797 70.6C163.797 75.9505 162.414 80.6894 159.663 84.8483L161.331 85.9517C164.313 81.4439 165.797 76.3162 165.797 70.6H163.797ZM159.667 84.8423C156.885 88.982 153.512 92.0246 149.55 94.0056L150.444 95.7944C154.749 93.6421 158.375 90.3513 161.327 85.9577L159.667 84.8423ZM149.556 94.0026C145.622 95.9372 141.539 96.9 137.297 96.9V98.9C141.855 98.9 146.238 97.8628 150.438 95.7973L149.556 94.0026ZM137.297 96.9C133.066 96.9 128.955 95.8758 124.956 93.8114L124.038 95.5886C128.305 97.7908 132.728 98.9 137.297 98.9V96.9ZM124.967 93.8173C120.988 91.6996 117.606 88.6144 114.823 84.5363L113.171 85.6637C116.121 89.9856 119.739 93.3004 124.027 95.5827L124.967 93.8173ZM114.833 84.5513C112.145 80.4552 110.797 75.8476 110.797 70.7H108.797C108.797 76.219 110.249 81.2114 113.161 85.6487L114.833 84.5513ZM130.097 78.7C132.366 80.4016 134.738 81.3 137.197 81.3V79.3C135.256 79.3 133.295 78.5984 131.297 77.1L130.097 78.7ZM137.197 81.3C139.665 81.3 142.072 80.3614 144.401 78.5971L143.193 77.0029C141.122 78.5719 139.129 79.3 137.197 79.3V81.3ZM144.401 78.5971C146.898 76.7054 148.097 73.915 148.097 70.4H146.097C146.097 73.4184 145.096 75.5612 143.193 77.0029L144.401 78.5971ZM148.097 70.4C148.097 66.9092 146.981 64.1454 144.609 62.3093L143.385 63.8907C145.146 65.2546 146.097 67.3575 146.097 70.4H148.097ZM144.609 62.3093C142.384 60.5864 139.939 59.7 137.297 59.7V61.7C139.455 61.7 141.477 62.4136 143.385 63.8907L144.609 62.3093ZM137.297 59.7C134.644 59.7 132.194 60.6277 129.969 62.4216L131.225 63.9784C133.134 62.4389 135.15 61.7 137.297 61.7V59.7ZM129.969 62.4216C127.613 64.3215 126.497 67.1076 126.497 70.6H128.497C128.497 67.5591 129.447 65.4118 131.225 63.9784L129.969 62.4216ZM126.497 70.6C126.497 74.045 127.66 76.7963 130.081 78.688L131.313 77.112C129.467 75.6704 128.497 73.555 128.497 70.6H126.497ZM213.058 44.9L213.359 43.9464L213.058 44.9ZM216.158 47L215.377 47.6247L215.4 47.6535L215.425 47.6805L216.158 47ZM215.558 58.6L214.663 58.1528L215.558 58.6ZM206.558 61.6L206.111 62.4944L206.121 62.4998L206.132 62.5048L206.558 61.6ZM197.158 62.7L196.537 61.916L196.529 61.9224L196.521 61.929L197.158 62.7ZM194.658 91.8L193.671 91.6356L193.665 91.6724L193.662 91.7095L194.658 91.8ZM193.758 94.4L194.624 94.8997L194.632 94.8853L194.64 94.8706L193.758 94.4ZM179.058 95.3L178.399 96.0526L178.414 96.0652L178.429 96.0772L179.058 95.3ZM177.258 91H176.258V91.0344L176.26 91.0688L177.258 91ZM177.358 49.6L176.371 49.4356L176.365 49.4724L176.362 49.5095L177.358 49.6ZM178.258 47L177.37 46.5397L177.367 46.5462L177.363 46.5528L178.258 47ZM193.558 46.6L192.72 47.1463L192.727 47.1565L192.734 47.1665L193.558 46.6ZM194.658 49.9H193.658V53.0205L195.472 50.4812L194.658 49.9ZM196.058 48.2L195.351 47.4929L195.332 47.5115L195.315 47.531L196.058 48.2ZM200.158 45.5L199.677 44.6232L200.158 45.5ZM209.558 44.1L209.374 45.0829L209.404 45.0885L209.434 45.0923L209.558 44.1ZM212.757 45.8536C213.842 46.1963 214.706 46.7854 215.377 47.6247L216.939 46.3753C216.01 45.2146 214.807 44.4037 213.359 43.9464L212.757 45.8536ZM215.425 47.6805C216.036 48.3383 216.458 49.5601 216.458 51.6H218.458C218.458 49.3733 218.013 47.5283 216.891 46.3195L215.425 47.6805ZM216.458 51.6C216.458 53.5358 215.882 55.7147 214.663 58.1528L216.452 59.0472C217.767 56.4186 218.458 53.9309 218.458 51.6H216.458ZM214.663 58.1528C214.085 59.3088 213.41 60.1122 212.664 60.6273C211.928 61.1362 211.071 61.4 210.058 61.4V63.4C211.444 63.4 212.704 63.0305 213.801 62.2727C214.889 61.5211 215.764 60.4245 216.452 59.0472L214.663 58.1528ZM210.058 61.4C209.011 61.4 207.99 61.1686 206.984 60.6952L206.132 62.5048C207.393 63.098 208.704 63.4 210.058 63.4V61.4ZM207.005 60.7056C205.747 60.0765 204.141 59.8 202.258 59.8V61.8C203.975 61.8 205.235 62.0569 206.111 62.4944L207.005 60.7056ZM202.258 59.8C200.203 59.8 198.289 60.5291 196.537 61.916L197.779 63.484C199.227 62.3375 200.713 61.8 202.258 61.8V59.8ZM196.521 61.929C194.785 63.3631 193.858 65.168 193.858 67.3H195.858C195.858 65.832 196.464 64.5702 197.795 63.471L196.521 61.929ZM193.858 67.3V88.3H195.858V67.3H193.858ZM193.858 88.3C193.858 89.8176 193.791 90.9184 193.671 91.6356L195.644 91.9644C195.791 91.0816 195.858 89.8491 195.858 88.3H193.858ZM193.662 91.7095C193.612 92.2578 193.376 92.9903 192.875 93.9294L194.64 94.8706C195.206 93.8097 195.57 92.8088 195.654 91.8905L193.662 91.7095ZM192.892 93.9003C192.553 94.4877 191.896 95.0166 190.742 95.4013C189.583 95.7876 188.001 96 185.958 96V98C188.114 98 189.933 97.779 191.374 97.2987C192.82 96.8167 193.963 96.0456 194.624 94.8997L192.892 93.9003ZM185.958 96C182.828 96 180.816 95.4365 179.687 94.5228L178.429 96.0772C180.1 97.4302 182.688 98 185.958 98V96ZM179.716 94.5474C178.913 93.8442 178.377 92.6999 178.255 90.9312L176.26 91.0688C176.405 93.1668 177.07 94.8891 178.399 96.0526L179.716 94.5474ZM178.258 91C178.258 90.9987 178.258 90.9974 178.258 90.9961C178.258 90.9948 178.258 90.9935 178.258 90.9922C178.258 90.9909 178.258 90.9896 178.258 90.9883C178.258 90.9869 178.258 90.9856 178.258 90.9843C178.258 90.983 178.258 90.9817 178.258 90.9804C178.258 90.9791 178.258 90.9778 178.258 90.9764C178.258 90.9751 178.258 90.9738 178.258 90.9725C178.258 90.9712 178.258 90.9698 178.258 90.9685C178.258 90.9672 178.258 90.9659 178.258 90.9646C178.258 90.9632 178.258 90.9619 178.258 90.9606C178.258 90.9593 178.258 90.9579 178.258 90.9566C178.258 90.9553 178.258 90.954 178.258 90.9526C178.258 90.9513 178.258 90.95 178.258 90.9486C178.258 90.9473 178.258 90.946 178.258 90.9446C178.258 90.9433 178.258 90.942 178.258 90.9406C178.258 90.9393 178.258 90.938 178.258 90.9366C178.258 90.9353 178.258 90.9339 178.258 90.9326C178.258 90.9313 178.258 90.9299 178.258 90.9286C178.258 90.9272 178.258 90.9259 178.258 90.9245C178.258 90.9232 178.258 90.9219 178.258 90.9205C178.258 90.9192 178.258 90.9178 178.258 90.9165C178.258 90.9151 178.258 90.9137 178.258 90.9124C178.258 90.911 178.258 90.9097 178.258 90.9083C178.258 90.907 178.258 90.9056 178.258 90.9043C178.258 90.9029 178.258 90.9016 178.258 90.9002C178.258 90.8988 178.258 90.8975 178.258 90.8961C178.258 90.8948 178.258 90.8934 178.258 90.892C178.258 90.8907 178.258 90.8893 178.258 90.8879C178.258 90.8866 178.258 90.8852 178.258 90.8838C178.258 90.8825 178.258 90.8811 178.258 90.8797C178.258 90.8783 178.258 90.877 178.258 90.8756C178.258 90.8742 178.258 90.8729 178.258 90.8715C178.258 90.8701 178.258 90.8687 178.258 90.8674C178.258 90.866 178.258 90.8646 178.258 90.8632C178.258 90.8618 178.258 90.8605 178.258 90.8591C178.258 90.8577 178.258 90.8563 178.258 90.8549C178.258 90.8535 178.258 90.8522 178.258 90.8508C178.258 90.8494 178.258 90.848 178.258 90.8466C178.258 90.8452 178.258 90.8438 178.258 90.8424C178.258 90.841 178.258 90.8397 178.258 90.8383C178.258 90.8369 178.258 90.8355 178.258 90.8341C178.258 90.8327 178.258 90.8313 178.258 90.8299C178.258 90.8285 178.258 90.8271 178.258 90.8257C178.258 90.8243 178.258 90.8229 178.258 90.8215C178.258 90.8201 178.258 90.8187 178.258 90.8173C178.258 90.8159 178.258 90.8145 178.258 90.813C178.258 90.8116 178.258 90.8102 178.258 90.8088C178.258 90.8074 178.258 90.806 178.258 90.8046C178.258 90.8032 178.258 90.8018 178.258 90.8004C178.258 90.7989 178.258 90.7975 178.258 90.7961C178.258 90.7947 178.258 90.7933 178.258 90.7919C178.258 90.7904 178.258 90.789 178.258 90.7876C178.258 90.7862 178.258 90.7847 178.258 90.7833C178.258 90.7819 178.258 90.7805 178.258 90.7791C178.258 90.7776 178.258 90.7762 178.258 90.7748C178.258 90.7733 178.258 90.7719 178.258 90.7705C178.258 90.7691 178.258 90.7676 178.258 90.7662C178.258 90.7648 178.258 90.7633 178.258 90.7619C178.258 90.7605 178.258 90.759 178.258 90.7576C178.258 90.7561 178.258 90.7547 178.258 90.7533C178.258 90.7518 178.258 90.7504 178.258 90.7489C178.258 90.7475 178.258 90.7461 178.258 90.7446C178.258 90.7432 178.258 90.7417 178.258 90.7403C178.258 90.7388 178.258 90.7374 178.258 90.7359C178.258 90.7345 178.258 90.733 178.258 90.7316C178.258 90.7301 178.258 90.7287 178.258 90.7272C178.258 90.7258 178.258 90.7243 178.258 90.7229C178.258 90.7214 178.258 90.72 178.258 90.7185C178.258 90.717 178.258 90.7156 178.258 90.7141C178.258 90.7127 178.258 90.7112 178.258 90.7097C178.258 90.7083 178.258 90.7068 178.258 90.7054C178.258 90.7039 178.258 90.7024 178.258 90.701C178.258 90.6995 178.258 90.698 178.258 90.6965C178.258 90.6951 178.258 90.6936 178.258 90.6921C178.258 90.6907 178.258 90.6892 178.258 90.6877C178.258 90.6862 178.258 90.6848 178.258 90.6833C178.258 90.6818 178.258 90.6803 178.258 90.6789C178.258 90.6774 178.258 90.6759 178.258 90.6744C178.258 90.6729 178.258 90.6715 178.258 90.67C178.258 90.6685 178.258 90.667 178.258 90.6655C178.258 90.664 178.258 90.6626 178.258 90.6611C178.258 90.6596 178.258 90.6581 178.258 90.6566C178.258 90.6551 178.258 90.6536 178.258 90.6521C178.258 90.6506 178.258 90.6491 178.258 90.6477C178.258 90.6462 178.258 90.6447 178.258 90.6432C178.258 90.6417 178.258 90.6402 178.258 90.6387C178.258 90.6372 178.258 90.6357 178.258 90.6342C178.258 90.6327 178.258 90.6312 178.258 90.6297C178.258 90.6282 178.258 90.6267 178.258 90.6252C178.258 90.6236 178.258 90.6221 178.258 90.6206C178.258 90.6191 178.258 90.6176 178.258 90.6161C178.258 90.6146 178.258 90.6131 178.258 90.6116C178.258 90.6101 178.258 90.6085 178.258 90.607C178.258 90.6055 178.258 90.604 178.258 90.6025C178.258 90.601 178.258 90.5994 178.258 90.5979C178.258 90.5964 178.258 90.5949 178.258 90.5934C178.258 90.5918 178.258 90.5903 178.258 90.5888C178.258 90.5873 178.258 90.5857 178.258 90.5842C178.258 90.5827 178.258 90.5812 178.258 90.5796C178.258 90.5781 178.258 90.5766 178.258 90.575C178.258 90.5735 178.258 90.572 178.258 90.5704C178.258 90.5689 178.258 90.5674 178.258 90.5658C178.258 90.5643 178.258 90.5628 178.258 90.5612C178.258 90.5597 178.258 90.5582 178.258 90.5566C178.258 90.5551 178.258 90.5535 178.258 90.552C178.258 90.5505 178.258 90.5489 178.258 90.5474C178.258 90.5458 178.258 90.5443 178.258 90.5427C178.258 90.5412 178.258 90.5396 178.258 90.5381C178.258 90.5365 178.258 90.535 178.258 90.5334C178.258 90.5319 178.258 90.5303 178.258 90.5288C178.258 90.5272 178.258 90.5257 178.258 90.5241C178.258 90.5226 178.258 90.521 178.258 90.5194C178.258 90.5179 178.258 90.5163 178.258 90.5148C178.258 90.5132 178.258 90.5116 178.258 90.5101C178.258 90.5085 178.258 90.5069 178.258 90.5054C178.258 90.5038 178.258 90.5022 178.258 90.5007C178.258 90.4991 178.258 90.4975 178.258 90.496C178.258 90.4944 178.258 90.4928 178.258 90.4913C178.258 90.4897 178.258 90.4881 178.258 90.4865C178.258 90.485 178.258 90.4834 178.258 90.4818C178.258 90.4802 178.258 90.4787 178.258 90.4771C178.258 90.4755 178.258 90.4739 178.258 90.4723C178.258 90.4708 178.258 90.4692 178.258 90.4676C178.258 90.466 178.258 90.4644 178.258 90.4628C178.258 90.4613 178.258 90.4597 178.258 90.4581C178.258 90.4565 178.258 90.4549 178.258 90.4533C178.258 90.4517 178.258 90.4501 178.258 90.4485C178.258 90.4469 178.258 90.4453 178.258 90.4437C178.258 90.4422 178.258 90.4406 178.258 90.439C178.258 90.4374 178.258 90.4358 178.258 90.4342C178.258 90.4326 178.258 90.431 178.258 90.4294C178.258 90.4278 178.258 90.4262 178.258 90.4246C178.258 90.423 178.258 90.4213 178.258 90.4197C178.258 90.4181 178.258 90.4165 178.258 90.4149C178.258 90.4133 178.258 90.4117 178.258 90.4101C178.258 90.4085 178.258 90.4069 178.258 90.4053C178.258 90.4036 178.258 90.402 178.258 90.4004C178.258 90.3988 178.258 90.3972 178.258 90.3956C178.258 90.3939 178.258 90.3923 178.258 90.3907C178.258 90.3891 178.258 90.3875 178.258 90.3858C178.258 90.3842 178.258 90.3826 178.258 90.381C178.258 90.3793 178.258 90.3777 178.258 90.3761C178.258 90.3745 178.258 90.3728 178.258 90.3712C178.258 90.3696 178.258 90.3679 178.258 90.3663C178.258 90.3647 178.258 90.363 178.258 90.3614C178.258 90.3598 178.258 90.3581 178.258 90.3565C178.258 90.3549 178.258 90.3532 178.258 90.3516C178.258 90.35 178.258 90.3483 178.258 90.3467C178.258 90.345 178.258 90.3434 178.258 90.3418C178.258 90.3401 178.258 90.3385 178.258 90.3368C178.258 90.3352 178.258 90.3335 178.258 90.3319C178.258 90.3302 178.258 90.3286 178.258 90.3269C178.258 90.3253 178.258 90.3236 178.258 90.322C178.258 90.3203 178.258 90.3187 178.258 90.317C178.258 90.3154 178.258 90.3137 178.258 90.312C178.258 90.3104 178.258 90.3087 178.258 90.3071C178.258 90.3054 178.258 90.3038 178.258 90.3021C178.258 90.3004 178.258 90.2988 178.258 90.2971C178.258 90.2954 178.258 90.2938 178.258 90.2921C178.258 90.2904 178.258 90.2888 178.258 90.2871C178.258 90.2854 178.258 90.2838 178.258 90.2821C178.258 90.2804 178.258 90.2788 178.258 90.2771C178.258 90.2754 178.258 90.2737 178.258 90.2721C178.258 90.2704 178.258 90.2687 178.258 90.267C178.258 90.2654 178.258 90.2637 178.258 90.262C178.258 90.2603 178.258 90.2586 178.258 90.257C178.258 90.2553 178.258 90.2536 178.258 90.2519C178.258 90.2502 178.258 90.2485 178.258 90.2468C178.258 90.2452 178.258 90.2435 178.258 90.2418C178.258 90.2401 178.258 90.2384 178.258 90.2367C178.258 90.235 178.258 90.2333 178.258 90.2316C178.258 90.2299 178.258 90.2282 178.258 90.2266C178.258 90.2249 178.258 90.2232 178.258 90.2215C178.258 90.2198 178.258 90.2181 178.258 90.2164C178.258 90.2147 178.258 90.213 178.258 90.2113C178.258 90.2096 178.258 90.2079 178.258 90.2062C178.258 90.2044 178.258 90.2027 178.258 90.201C178.258 90.1993 178.258 90.1976 178.258 90.1959C178.258 90.1942 178.258 90.1925 178.258 90.1908C178.258 90.1891 178.258 90.1874 178.258 90.1856C178.258 90.1839 178.258 90.1822 178.258 90.1805C178.258 90.1788 178.258 90.1771 178.258 90.1753C178.258 90.1736 178.258 90.1719 178.258 90.1702C178.258 90.1685 178.258 90.1667 178.258 90.165C178.258 90.1633 178.258 90.1616 178.258 90.1598C178.258 90.1581 178.258 90.1564 178.258 90.1547C178.258 90.1529 178.258 90.1512 178.258 90.1495C178.258 90.1477 178.258 90.146 178.258 90.1443C178.258 90.1425 178.258 90.1408 178.258 90.1391C178.258 90.1373 178.258 90.1356 178.258 90.1339C178.258 90.1321 178.258 90.1304 178.258 90.1287C178.258 90.1269 178.258 90.1252 178.258 90.1234C178.258 90.1217 178.258 90.1199 178.258 90.1182C178.258 90.1165 178.258 90.1147 178.258 90.113C178.258 90.1112 178.258 90.1095 178.258 90.1077C178.258 90.106 178.258 90.1042 178.258 90.1025C178.258 90.1007 178.258 90.099 178.258 90.0972C178.258 90.0955 178.258 90.0937 178.258 90.092C178.258 90.0902 178.258 90.0885 178.258 90.0867C178.258 90.0849 178.258 90.0832 178.258 90.0814C178.258 90.0797 178.258 90.0779 178.258 90.0761C178.258 90.0744 178.258 90.0726 178.258 90.0708C178.258 90.0691 178.258 90.0673 178.258 90.0656C178.258 90.0638 178.258 90.062 178.258 90.0602C178.258 90.0585 178.258 90.0567 178.258 90.0549C178.258 90.0532 178.258 90.0514 178.258 90.0496C178.258 90.0478 178.258 90.0461 178.258 90.0443C178.258 90.0425 178.258 90.0407 178.258 90.039C178.258 90.0372 178.258 90.0354 178.258 90.0336C178.258 90.0318 178.258 90.0301 178.258 90.0283C178.258 90.0265 178.258 90.0247 178.258 90.0229C178.258 90.0211 178.258 90.0194 178.258 90.0176C178.258 90.0158 178.258 90.014 178.258 90.0122C178.258 90.0104 178.258 90.0086 178.258 90.0068C178.258 90.005 178.258 90.0033 178.258 90.0015C178.258 89.9997 178.258 89.9979 178.258 89.9961C178.258 89.9943 178.258 89.9925 178.258 89.9907C178.258 89.9889 178.258 89.9871 178.258 89.9853C178.258 89.9835 178.258 89.9817 178.258 89.9799C178.258 89.9781 178.258 89.9763 178.258 89.9745C178.258 89.9726 178.258 89.9708 178.258 89.969C178.258 89.9672 178.258 89.9654 178.258 89.9636C178.258 89.9618 178.258 89.96 178.258 89.9582C178.258 89.9564 178.258 89.9546 178.258 89.9527C178.258 89.9509 178.258 89.9491 178.258 89.9473C178.258 89.9455 178.258 89.9436 178.258 89.9418C178.258 89.94 178.258 89.9382 178.258 89.9364C178.258 89.9345 178.258 89.9327 178.258 89.9309C178.258 89.9291 178.258 89.9273 178.258 89.9254C178.258 89.9236 178.258 89.9218 178.258 89.9199C178.258 89.9181 178.258 89.9163 178.258 89.9145C178.258 89.9126 178.258 89.9108 178.258 89.909C178.258 89.9071 178.258 89.9053 178.258 89.9035C178.258 89.9016 178.258 89.8998 178.258 89.8979C178.258 89.8961 178.258 89.8943 178.258 89.8924C178.258 89.8906 178.258 89.8887 178.258 89.8869C178.258 89.8851 178.258 89.8832 178.258 89.8814C178.258 89.8795 178.258 89.8777 178.258 89.8758C178.258 89.874 178.258 89.8721 178.258 89.8703C178.258 89.8684 178.258 89.8666 178.258 89.8647C178.258 89.8629 178.258 89.861 178.258 89.8592C178.258 89.8573 178.258 89.8555 178.258 89.8536C178.258 89.8518 178.258 89.8499 178.258 89.8481C178.258 89.8462 178.258 89.8443 178.258 89.8425C178.258 89.8406 178.258 89.8388 178.258 89.8369C178.258 89.835 178.258 89.8332 178.258 89.8313C178.258 89.8294 178.258 89.8276 178.258 89.8257C178.258 89.8238 178.258 89.822 178.258 89.8201C178.258 89.8182 178.258 89.8164 178.258 89.8145C178.258 89.8126 178.258 89.8107 178.258 89.8089C178.258 89.807 178.258 89.8051 178.258 89.8032C178.258 89.8014 178.258 89.7995 178.258 89.7976C178.258 89.7957 178.258 89.7938 178.258 89.792C178.258 89.7901 178.258 89.7882 178.258 89.7863C178.258 89.7844 178.258 89.7825 178.258 89.7807C178.258 89.7788 178.258 89.7769 178.258 89.775C178.258 89.7731 178.258 89.7712 178.258 89.7693C178.258 89.7674 178.258 89.7655 178.258 89.7637C178.258 89.7618 178.258 89.7599 178.258 89.758C178.258 89.7561 178.258 89.7542 178.258 89.7523C178.258 89.7504 178.258 89.7485 178.258 89.7466C178.258 89.7447 178.258 89.7428 178.258 89.7409C178.258 89.739 178.258 89.7371 178.258 89.7352C178.258 89.7333 178.258 89.7314 178.258 89.7295C178.258 89.7276 178.258 89.7257 178.258 89.7237C178.258 89.7218 178.258 89.7199 178.258 89.718C178.258 89.7161 178.258 89.7142 178.258 89.7123C178.258 89.7104 178.258 89.7085 178.258 89.7065C178.258 89.7046 178.258 89.7027 178.258 89.7008C178.258 89.6989 178.258 89.697 178.258 89.695C178.258 89.6931 178.258 89.6912 178.258 89.6893C178.258 89.6873 178.258 89.6854 178.258 89.6835C178.258 89.6816 178.258 89.6796 178.258 89.6777C178.258 89.6758 178.258 89.6739 178.258 89.6719C178.258 89.67 178.258 89.6681 178.258 89.6661C178.258 89.6642 178.258 89.6623 178.258 89.6603C178.258 89.6584 178.258 89.6565 178.258 89.6545C178.258 89.6526 178.258 89.6507 178.258 89.6487C178.258 89.6468 178.258 89.6449 178.258 89.6429C178.258 89.641 178.258 89.639 178.258 89.6371C178.258 89.6351 178.258 89.6332 178.258 89.6313C178.258 89.6293 178.258 89.6274 178.258 89.6254C178.258 89.6235 178.258 89.6215 178.258 89.6196C178.258 89.6176 178.258 89.6157 178.258 89.6137C178.258 89.6118 178.258 89.6098 178.258 89.6079C178.258 89.6059 178.258 89.6039 178.258 89.602C178.258 89.6 178.258 89.5981 178.258 89.5961C178.258 89.5942 178.258 89.5922 178.258 89.5902C178.258 89.5883 178.258 89.5863 178.258 89.5844C178.258 89.5824 178.258 89.5804 178.258 89.5785C178.258 89.5765 178.258 89.5745 178.258 89.5726C178.258 89.5706 178.258 89.5686 178.258 89.5666C178.258 89.5647 178.258 89.5627 178.258 89.5607C178.258 89.5588 178.258 89.5568 178.258 89.5548C178.258 89.5528 178.258 89.5509 178.258 89.5489C178.258 89.5469 178.258 89.5449 178.258 89.5429C178.258 89.541 178.258 89.539 178.258 89.537C178.258 89.535 178.258 89.533 178.258 89.5311C178.258 89.5291 178.258 89.5271 178.258 89.5251C178.258 89.5231 178.258 89.5211 178.258 89.5191C178.258 89.5171 178.258 89.5152 178.258 89.5132C178.258 89.5112 178.258 89.5092 178.258 89.5072C178.258 89.5052 178.258 89.5032 178.258 89.5012C178.258 89.4992 178.258 89.4972 178.258 89.4952C178.258 89.4932 178.258 89.4912 178.258 89.4892C178.258 89.4872 178.258 89.4852 178.258 89.4832C178.258 89.4812 178.258 89.4792 178.258 89.4772C178.258 89.4752 178.258 89.4732 178.258 89.4712C178.258 89.4692 178.258 89.4672 178.258 89.4652C178.258 89.4632 178.258 89.4611 178.258 89.4591C178.258 89.4571 178.258 89.4551 178.258 89.4531C178.258 89.4511 178.258 89.4491 178.258 89.447C178.258 89.445 178.258 89.443 178.258 89.441C178.258 89.439 178.258 89.437 178.258 89.4349C178.258 89.4329 178.258 89.4309 178.258 89.4289C178.258 89.4268 178.258 89.4248 178.258 89.4228C178.258 89.4208 178.258 89.4187 178.258 89.4167C178.258 89.4147 178.258 89.4127 178.258 89.4106C178.258 89.4086 178.258 89.4066 178.258 89.4045C178.258 89.4025 178.258 89.4005 178.258 89.3984C178.258 89.3964 178.258 89.3944 178.258 89.3923C178.258 89.3903 178.258 89.3883 178.258 89.3862C178.258 89.3842 178.258 89.3821 178.258 89.3801C178.258 89.3781 178.258 89.376 178.258 89.374C178.258 89.3719 178.258 89.3699 178.258 89.3678C178.258 89.3658 178.258 89.3637 178.258 89.3617C178.258 89.3596 178.258 89.3576 178.258 89.3555C178.258 89.3535 178.258 89.3514 178.258 89.3494C178.258 89.3473 178.258 89.3453 178.258 89.3432C178.258 89.3412 178.258 89.3391 178.258 89.3371C178.258 89.335 178.258 89.3329 178.258 89.3309C178.258 89.3288 178.258 89.3268 178.258 89.3247C178.258 89.3226 178.258 89.3206 178.258 89.3185C178.258 89.3164 178.258 89.3144 178.258 89.3123C178.258 89.3102 178.258 89.3082 178.258 89.3061C178.258 89.304 178.258 89.302 178.258 89.2999C178.258 89.2978 178.258 89.2958 178.258 89.2937C178.258 89.2916 178.258 89.2895 178.258 89.2875C178.258 89.2854 178.258 89.2833 178.258 89.2812C178.258 89.2792 178.258 89.2771 178.258 89.275C178.258 89.2729 178.258 89.2708 178.258 89.2688C178.258 89.2667 178.258 89.2646 178.258 89.2625C178.258 89.2604 178.258 89.2583 178.258 89.2562C178.258 89.2542 178.258 89.2521 178.258 89.25C178.258 89.2479 178.258 89.2458 178.258 89.2437C178.258 89.2416 178.258 89.2395 178.258 89.2374C178.258 89.2353 178.258 89.2332 178.258 89.2311C178.258 89.229 178.258 89.2269 178.258 89.2248C178.258 89.2227 178.258 89.2206 178.258 89.2186C178.258 89.2164 178.258 89.2143 178.258 89.2122C178.258 89.2101 178.258 89.208 178.258 89.2059C178.258 89.2038 178.258 89.2017 178.258 89.1996C178.258 89.1975 178.258 89.1954 178.258 89.1933C178.258 89.1912 178.258 89.1891 178.258 89.187C178.258 89.1848 178.258 89.1827 178.258 89.1806C178.258 89.1785 178.258 89.1764 178.258 89.1743C178.258 89.1721 178.258 89.17 178.258 89.1679C178.258 89.1658 178.258 89.1637 178.258 89.1615C178.258 89.1594 178.258 89.1573 178.258 89.1552C178.258 89.1531 178.258 89.1509 178.258 89.1488C178.258 89.1467 178.258 89.1446 178.258 89.1424C178.258 89.1403 178.258 89.1382 178.258 89.136C178.258 89.1339 178.258 89.1318 178.258 89.1296C178.258 89.1275 178.258 89.1254 178.258 89.1232C178.258 89.1211 178.258 89.119 178.258 89.1168C178.258 89.1147 178.258 89.1125 178.258 89.1104C178.258 89.1083 178.258 89.1061 178.258 89.104C178.258 89.1018 178.258 89.0997 178.258 89.0976C178.258 89.0954 178.258 89.0933 178.258 89.0911C178.258 89.089 178.258 89.0868 178.258 89.0847C178.258 89.0825 178.258 89.0804 178.258 89.0782C178.258 89.0761 178.258 89.0739 178.258 89.0718C178.258 89.0696 178.258 89.0675 178.258 89.0653C178.258 89.0631 178.258 89.061 178.258 89.0588C178.258 89.0567 178.258 89.0545 178.258 89.0524C178.258 89.0502 178.258 89.048 178.258 89.0459C178.258 89.0437 178.258 89.0415 178.258 89.0394C178.258 89.0372 178.258 89.035 178.258 89.0329C178.258 89.0307 178.258 89.0285 178.258 89.0264C178.258 89.0242 178.258 89.022 178.258 89.0199C178.258 89.0177 178.258 89.0155 178.258 89.0134C178.258 89.0112 178.258 89.009 178.258 89.0068C178.258 89.0046 178.258 89.0025 178.258 89.0003C178.258 88.9981 178.258 88.9959 178.258 88.9938C178.258 88.9916 178.258 88.9894 178.258 88.9872C178.258 88.985 178.258 88.9828 178.258 88.9807C178.258 88.9785 178.258 88.9763 178.258 88.9741C178.258 88.9719 178.258 88.9697 178.258 88.9675C178.258 88.9653 178.258 88.9631 178.258 88.961C178.258 88.9588 178.258 88.9566 178.258 88.9544C178.258 88.9522 178.258 88.95 178.258 88.9478C178.258 88.9456 178.258 88.9434 178.258 88.9412C178.258 88.939 178.258 88.9368 178.258 88.9346C178.258 88.9324 178.258 88.9302 178.258 88.928C178.258 88.9258 178.258 88.9236 178.258 88.9214C178.258 88.9192 178.258 88.9169 178.258 88.9147C178.258 88.9125 178.258 88.9103 178.258 88.9081C178.258 88.9059 178.258 88.9037 178.258 88.9015C178.258 88.8993 178.258 88.897 178.258 88.8948C178.258 88.8926 178.258 88.8904 178.258 88.8882C178.258 88.886 178.258 88.8838 178.258 88.8815C178.258 88.8793 178.258 88.8771 178.258 88.8749C178.258 88.8726 178.258 88.8704 178.258 88.8682C178.258 88.866 178.258 88.8637 178.258 88.8615C178.258 88.8593 178.258 88.8571 178.258 88.8548C178.258 88.8526 178.258 88.8504 178.258 88.8481C178.258 88.8459 178.258 88.8437 178.258 88.8414C178.258 88.8392 178.258 88.837 178.258 88.8347C178.258 88.8325 178.258 88.8303 178.258 88.828C178.258 88.8258 178.258 88.8236 178.258 88.8213C178.258 88.8191 178.258 88.8168 178.258 88.8146C178.258 88.8123 178.258 88.8101 178.258 88.8079C178.258 88.8056 178.258 88.8034 178.258 88.8011C178.258 88.7989 178.258 88.7966 178.258 88.7944C178.258 88.7921 178.258 88.7899 178.258 88.7876C178.258 88.7854 178.258 88.7831 178.258 88.7809C178.258 88.7786 178.258 88.7764 178.258 88.7741C178.258 88.7718 178.258 88.7696 178.258 88.7673C178.258 88.7651 178.258 88.7628 178.258 88.7605C178.258 88.7583 178.258 88.756 178.258 88.7538C178.258 88.7515 178.258 88.7492 178.258 88.747C178.258 88.7447 178.258 88.7424 178.258 88.7402C178.258 88.7379 178.258 88.7356 178.258 88.7334C178.258 88.7311 178.258 88.7288 178.258 88.7265C178.258 88.7243 178.258 88.722 178.258 88.7197C178.258 88.7174 178.258 88.7152 178.258 88.7129C178.258 88.7106 178.258 88.7083 178.258 88.7061C178.258 88.7038 178.258 88.7015 178.258 88.6992C178.258 88.6969 178.258 88.6946 178.258 88.6924C178.258 88.6901 178.258 88.6878 178.258 88.6855C178.258 88.6832 178.258 88.6809 178.258 88.6786C178.258 88.6764 178.258 88.6741 178.258 88.6718C178.258 88.6695 178.258 88.6672 178.258 88.6649C178.258 88.6626 178.258 88.6603 178.258 88.658C178.258 88.6557 178.258 88.6534 178.258 88.6511C178.258 88.6488 178.258 88.6465 178.258 88.6442C178.258 88.6419 178.258 88.6396 178.258 88.6373C178.258 88.635 178.258 88.6327 178.258 88.6304C178.258 88.6281 178.258 88.6258 178.258 88.6235C178.258 88.6212 178.258 88.6189 178.258 88.6166C178.258 88.6143 178.258 88.612 178.258 88.6096C178.258 88.6073 178.258 88.605 178.258 88.6027C178.258 88.6004 178.258 88.5981 178.258 88.5958C178.258 88.5934 178.258 88.5911 178.258 88.5888C178.258 88.5865 178.258 88.5842 178.258 88.5819C178.258 88.5795 178.258 88.5772 178.258 88.5749C178.258 88.5726 178.258 88.5702 178.258 88.5679C178.258 88.5656 178.258 88.5633 178.258 88.5609C178.258 88.5586 178.258 88.5563 178.258 88.554C178.258 88.5516 178.258 88.5493 178.258 88.547C178.258 88.5446 178.258 88.5423 178.258 88.54C178.258 88.5376 178.258 88.5353 178.258 88.533C178.258 88.5306 178.258 88.5283 178.258 88.5259C178.258 88.5236 178.258 88.5213 178.258 88.5189C178.258 88.5166 178.258 88.5142 178.258 88.5119C178.258 88.5096 178.258 88.5072 178.258 88.5049C178.258 88.5025 178.258 88.5002 178.258 88.4978C178.258 88.4955 178.258 88.4931 178.258 88.4908C178.258 88.4884 178.258 88.4861 178.258 88.4837C178.258 88.4814 178.258 88.479 178.258 88.4767C178.258 88.4743 178.258 88.4719 178.258 88.4696C178.258 88.4672 178.258 88.4649 178.258 88.4625C178.258 88.4602 178.258 88.4578 178.258 88.4554C178.258 88.4531 178.258 88.4507 178.258 88.4483C178.258 88.446 178.258 88.4436 178.258 88.4412C178.258 88.4389 178.258 88.4365 178.258 88.4341C178.258 88.4318 178.258 88.4294 178.258 88.427C178.258 88.4247 178.258 88.4223 178.258 88.4199C178.258 88.4175 178.258 88.4152 178.258 88.4128C178.258 88.4104 178.258 88.408 178.258 88.4057C178.258 88.4033 178.258 88.4009 178.258 88.3985C178.258 88.3961 178.258 88.3938 178.258 88.3914C178.258 88.389 178.258 88.3866 178.258 88.3842C178.258 88.3818 178.258 88.3795 178.258 88.3771C178.258 88.3747 178.258 88.3723 178.258 88.3699C178.258 88.3675 178.258 88.3651 178.258 88.3627C178.258 88.3603 178.258 88.358 178.258 88.3556C178.258 88.3532 178.258 88.3508 178.258 88.3484C178.258 88.346 178.258 88.3436 178.258 88.3412C178.258 88.3388 178.258 88.3364 178.258 88.334C178.258 88.3316 178.258 88.3292 178.258 88.3268C178.258 88.3244 178.258 88.322 178.258 88.3196C178.258 88.3172 178.258 88.3148 178.258 88.3123C178.258 88.3099 178.258 88.3075 178.258 88.3051C178.258 88.3027 178.258 88.3003 178.258 88.2979C178.258 88.2955 178.258 88.2931 178.258 88.2906C178.258 88.2882 178.258 88.2858 178.258 88.2834C178.258 88.281 178.258 88.2786 178.258 88.2761C178.258 88.2737 178.258 88.2713 178.258 88.2689C178.258 88.2665 178.258 88.264 178.258 88.2616C178.258 88.2592 178.258 88.2568 178.258 88.2543C178.258 88.2519 178.258 88.2495 178.258 88.2471C178.258 88.2446 178.258 88.2422 178.258 88.2398C178.258 88.2373 178.258 88.2349 178.258 88.2325C178.258 88.23 178.258 88.2276 178.258 88.2252C178.258 88.2227 178.258 88.2203 178.258 88.2179C178.258 88.2154 178.258 88.213 178.258 88.2106C178.258 88.2081 178.258 88.2057 178.258 88.2032C178.258 88.2008 178.258 88.1983 178.258 88.1959C178.258 88.1935 178.258 88.191 178.258 88.1886C178.258 88.1861 178.258 88.1837 178.258 88.1812C178.258 88.1788 178.258 88.1763 178.258 88.1739C178.258 88.1714 178.258 88.169 178.258 88.1665C178.258 88.1641 178.258 88.1616 178.258 88.1592C178.258 88.1567 178.258 88.1542 178.258 88.1518C178.258 88.1493 178.258 88.1469 178.258 88.1444C178.258 88.1419 178.258 88.1395 178.258 88.137C178.258 88.1346 178.258 88.1321 178.258 88.1296C178.258 88.1272 178.258 88.1247 178.258 88.1222C178.258 88.1198 178.258 88.1173 178.258 88.1148C178.258 88.1124 178.258 88.1099 178.258 88.1074C178.258 88.1049 178.258 88.1025 178.258 88.1H176.258C176.258 88.1025 176.258 88.1049 176.258 88.1074C176.258 88.1099 176.258 88.1124 176.258 88.1148C176.258 88.1173 176.258 88.1198 176.258 88.1222C176.258 88.1247 176.258 88.1272 176.258 88.1296C176.258 88.1321 176.258 88.1346 176.258 88.137C176.258 88.1395 176.258 88.1419 176.258 88.1444C176.258 88.1469 176.258 88.1493 176.258 88.1518C176.258 88.1542 176.258 88.1567 176.258 88.1592C176.258 88.1616 176.258 88.1641 176.258 88.1665C176.258 88.169 176.258 88.1714 176.258 88.1739C176.258 88.1763 176.258 88.1788 176.258 88.1812C176.258 88.1837 176.258 88.1861 176.258 88.1886C176.258 88.191 176.258 88.1935 176.258 88.1959C176.258 88.1983 176.258 88.2008 176.258 88.2032C176.258 88.2057 176.258 88.2081 176.258 88.2106C176.258 88.213 176.258 88.2154 176.258 88.2179C176.258 88.2203 176.258 88.2227 176.258 88.2252C176.258 88.2276 176.258 88.23 176.258 88.2325C176.258 88.2349 176.258 88.2373 176.258 88.2398C176.258 88.2422 176.258 88.2446 176.258 88.2471C176.258 88.2495 176.258 88.2519 176.258 88.2543C176.258 88.2568 176.258 88.2592 176.258 88.2616C176.258 88.264 176.258 88.2665 176.258 88.2689C176.258 88.2713 176.258 88.2737 176.258 88.2761C176.258 88.2786 176.258 88.281 176.258 88.2834C176.258 88.2858 176.258 88.2882 176.258 88.2906C176.258 88.2931 176.258 88.2955 176.258 88.2979C176.258 88.3003 176.258 88.3027 176.258 88.3051C176.258 88.3075 176.258 88.3099 176.258 88.3123C176.258 88.3148 176.258 88.3172 176.258 88.3196C176.258 88.322 176.258 88.3244 176.258 88.3268C176.258 88.3292 176.258 88.3316 176.258 88.334C176.258 88.3364 176.258 88.3388 176.258 88.3412C176.258 88.3436 176.258 88.346 176.258 88.3484C176.258 88.3508 176.258 88.3532 176.258 88.3556C176.258 88.358 176.258 88.3603 176.258 88.3627C176.258 88.3651 176.258 88.3675 176.258 88.3699C176.258 88.3723 176.258 88.3747 176.258 88.3771C176.258 88.3795 176.258 88.3818 176.258 88.3842C176.258 88.3866 176.258 88.389 176.258 88.3914C176.258 88.3938 176.258 88.3961 176.258 88.3985C176.258 88.4009 176.258 88.4033 176.258 88.4057C176.258 88.408 176.258 88.4104 176.258 88.4128C176.258 88.4152 176.258 88.4175 176.258 88.4199C176.258 88.4223 176.258 88.4247 176.258 88.427C176.258 88.4294 176.258 88.4318 176.258 88.4341C176.258 88.4365 176.258 88.4389 176.258 88.4412C176.258 88.4436 176.258 88.446 176.258 88.4483C176.258 88.4507 176.258 88.4531 176.258 88.4554C176.258 88.4578 176.258 88.4602 176.258 88.4625C176.258 88.4649 176.258 88.4672 176.258 88.4696C176.258 88.4719 176.258 88.4743 176.258 88.4767C176.258 88.479 176.258 88.4814 176.258 88.4837C176.258 88.4861 176.258 88.4884 176.258 88.4908C176.258 88.4931 176.258 88.4955 176.258 88.4978C176.258 88.5002 176.258 88.5025 176.258 88.5049C176.258 88.5072 176.258 88.5096 176.258 88.5119C176.258 88.5142 176.258 88.5166 176.258 88.5189C176.258 88.5213 176.258 88.5236 176.258 88.5259C176.258 88.5283 176.258 88.5306 176.258 88.533C176.258 88.5353 176.258 88.5376 176.258 88.54C176.258 88.5423 176.258 88.5446 176.258 88.547C176.258 88.5493 176.258 88.5516 176.258 88.554C176.258 88.5563 176.258 88.5586 176.258 88.5609C176.258 88.5633 176.258 88.5656 176.258 88.5679C176.258 88.5702 176.258 88.5726 176.258 88.5749C176.258 88.5772 176.258 88.5795 176.258 88.5819C176.258 88.5842 176.258 88.5865 176.258 88.5888C176.258 88.5911 176.258 88.5934 176.258 88.5958C176.258 88.5981 176.258 88.6004 176.258 88.6027C176.258 88.605 176.258 88.6073 176.258 88.6096C176.258 88.612 176.258 88.6143 176.258 88.6166C176.258 88.6189 176.258 88.6212 176.258 88.6235C176.258 88.6258 176.258 88.6281 176.258 88.6304C176.258 88.6327 176.258 88.635 176.258 88.6373C176.258 88.6396 176.258 88.6419 176.258 88.6442C176.258 88.6465 176.258 88.6488 176.258 88.6511C176.258 88.6534 176.258 88.6557 176.258 88.658C176.258 88.6603 176.258 88.6626 176.258 88.6649C176.258 88.6672 176.258 88.6695 176.258 88.6718C176.258 88.6741 176.258 88.6764 176.258 88.6786C176.258 88.6809 176.258 88.6832 176.258 88.6855C176.258 88.6878 176.258 88.6901 176.258 88.6924C176.258 88.6946 176.258 88.6969 176.258 88.6992C176.258 88.7015 176.258 88.7038 176.258 88.7061C176.258 88.7083 176.258 88.7106 176.258 88.7129C176.258 88.7152 176.258 88.7174 176.258 88.7197C176.258 88.722 176.258 88.7243 176.258 88.7265C176.258 88.7288 176.258 88.7311 176.258 88.7334C176.258 88.7356 176.258 88.7379 176.258 88.7402C176.258 88.7424 176.258 88.7447 176.258 88.747C176.258 88.7492 176.258 88.7515 176.258 88.7538C176.258 88.756 176.258 88.7583 176.258 88.7605C176.258 88.7628 176.258 88.7651 176.258 88.7673C176.258 88.7696 176.258 88.7718 176.258 88.7741C176.258 88.7764 176.258 88.7786 176.258 88.7809C176.258 88.7831 176.258 88.7854 176.258 88.7876C176.258 88.7899 176.258 88.7921 176.258 88.7944C176.258 88.7966 176.258 88.7989 176.258 88.8011C176.258 88.8034 176.258 88.8056 176.258 88.8079C176.258 88.8101 176.258 88.8123 176.258 88.8146C176.258 88.8168 176.258 88.8191 176.258 88.8213C176.258 88.8236 176.258 88.8258 176.258 88.828C176.258 88.8303 176.258 88.8325 176.258 88.8347C176.258 88.837 176.258 88.8392 176.258 88.8414C176.258 88.8437 176.258 88.8459 176.258 88.8481C176.258 88.8504 176.258 88.8526 176.258 88.8548C176.258 88.8571 176.258 88.8593 176.258 88.8615C176.258 88.8637 176.258 88.866 176.258 88.8682C176.258 88.8704 176.258 88.8726 176.258 88.8749C176.258 88.8771 176.258 88.8793 176.258 88.8815C176.258 88.8838 176.258 88.886 176.258 88.8882C176.258 88.8904 176.258 88.8926 176.258 88.8948C176.258 88.897 176.258 88.8993 176.258 88.9015C176.258 88.9037 176.258 88.9059 176.258 88.9081C176.258 88.9103 176.258 88.9125 176.258 88.9147C176.258 88.9169 176.258 88.9192 176.258 88.9214C176.258 88.9236 176.258 88.9258 176.258 88.928C176.258 88.9302 176.258 88.9324 176.258 88.9346C176.258 88.9368 176.258 88.939 176.258 88.9412C176.258 88.9434 176.258 88.9456 176.258 88.9478C176.258 88.95 176.258 88.9522 176.258 88.9544C176.258 88.9566 176.258 88.9588 176.258 88.961C176.258 88.9631 176.258 88.9653 176.258 88.9675C176.258 88.9697 176.258 88.9719 176.258 88.9741C176.258 88.9763 176.258 88.9785 176.258 88.9807C176.258 88.9828 176.258 88.985 176.258 88.9872C176.258 88.9894 176.258 88.9916 176.258 88.9938C176.258 88.9959 176.258 88.9981 176.258 89.0003C176.258 89.0025 176.258 89.0046 176.258 89.0068C176.258 89.009 176.258 89.0112 176.258 89.0134C176.258 89.0155 176.258 89.0177 176.258 89.0199C176.258 89.022 176.258 89.0242 176.258 89.0264C176.258 89.0285 176.258 89.0307 176.258 89.0329C176.258 89.035 176.258 89.0372 176.258 89.0394C176.258 89.0415 176.258 89.0437 176.258 89.0459C176.258 89.048 176.258 89.0502 176.258 89.0524C176.258 89.0545 176.258 89.0567 176.258 89.0588C176.258 89.061 176.258 89.0631 176.258 89.0653C176.258 89.0675 176.258 89.0696 176.258 89.0718C176.258 89.0739 176.258 89.0761 176.258 89.0782C176.258 89.0804 176.258 89.0825 176.258 89.0847C176.258 89.0868 176.258 89.089 176.258 89.0911C176.258 89.0933 176.258 89.0954 176.258 89.0976C176.258 89.0997 176.258 89.1018 176.258 89.104C176.258 89.1061 176.258 89.1083 176.258 89.1104C176.258 89.1125 176.258 89.1147 176.258 89.1168C176.258 89.119 176.258 89.1211 176.258 89.1232C176.258 89.1254 176.258 89.1275 176.258 89.1296C176.258 89.1318 176.258 89.1339 176.258 89.136C176.258 89.1382 176.258 89.1403 176.258 89.1424C176.258 89.1446 176.258 89.1467 176.258 89.1488C176.258 89.1509 176.258 89.1531 176.258 89.1552C176.258 89.1573 176.258 89.1594 176.258 89.1615C176.258 89.1637 176.258 89.1658 176.258 89.1679C176.258 89.17 176.258 89.1721 176.258 89.1743C176.258 89.1764 176.258 89.1785 176.258 89.1806C176.258 89.1827 176.258 89.1848 176.258 89.187C176.258 89.1891 176.258 89.1912 176.258 89.1933C176.258 89.1954 176.258 89.1975 176.258 89.1996C176.258 89.2017 176.258 89.2038 176.258 89.2059C176.258 89.208 176.258 89.2101 176.258 89.2122C176.258 89.2143 176.258 89.2164 176.258 89.2186C176.258 89.2206 176.258 89.2227 176.258 89.2248C176.258 89.2269 176.258 89.229 176.258 89.2311C176.258 89.2332 176.258 89.2353 176.258 89.2374C176.258 89.2395 176.258 89.2416 176.258 89.2437C176.258 89.2458 176.258 89.2479 176.258 89.25C176.258 89.2521 176.258 89.2542 176.258 89.2562C176.258 89.2583 176.258 89.2604 176.258 89.2625C176.258 89.2646 176.258 89.2667 176.258 89.2688C176.258 89.2708 176.258 89.2729 176.258 89.275C176.258 89.2771 176.258 89.2792 176.258 89.2812C176.258 89.2833 176.258 89.2854 176.258 89.2875C176.258 89.2895 176.258 89.2916 176.258 89.2937C176.258 89.2958 176.258 89.2978 176.258 89.2999C176.258 89.302 176.258 89.304 176.258 89.3061C176.258 89.3082 176.258 89.3102 176.258 89.3123C176.258 89.3144 176.258 89.3164 176.258 89.3185C176.258 89.3206 176.258 89.3226 176.258 89.3247C176.258 89.3268 176.258 89.3288 176.258 89.3309C176.258 89.3329 176.258 89.335 176.258 89.3371C176.258 89.3391 176.258 89.3412 176.258 89.3432C176.258 89.3453 176.258 89.3473 176.258 89.3494C176.258 89.3514 176.258 89.3535 176.258 89.3555C176.258 89.3576 176.258 89.3596 176.258 89.3617C176.258 89.3637 176.258 89.3658 176.258 89.3678C176.258 89.3699 176.258 89.3719 176.258 89.374C176.258 89.376 176.258 89.3781 176.258 89.3801C176.258 89.3821 176.258 89.3842 176.258 89.3862C176.258 89.3883 176.258 89.3903 176.258 89.3923C176.258 89.3944 176.258 89.3964 176.258 89.3984C176.258 89.4005 176.258 89.4025 176.258 89.4045C176.258 89.4066 176.258 89.4086 176.258 89.4106C176.258 89.4127 176.258 89.4147 176.258 89.4167C176.258 89.4187 176.258 89.4208 176.258 89.4228C176.258 89.4248 176.258 89.4268 176.258 89.4289C176.258 89.4309 176.258 89.4329 176.258 89.4349C176.258 89.437 176.258 89.439 176.258 89.441C176.258 89.443 176.258 89.445 176.258 89.447C176.258 89.4491 176.258 89.4511 176.258 89.4531C176.258 89.4551 176.258 89.4571 176.258 89.4591C176.258 89.4611 176.258 89.4632 176.258 89.4652C176.258 89.4672 176.258 89.4692 176.258 89.4712C176.258 89.4732 176.258 89.4752 176.258 89.4772C176.258 89.4792 176.258 89.4812 176.258 89.4832C176.258 89.4852 176.258 89.4872 176.258 89.4892C176.258 89.4912 176.258 89.4932 176.258 89.4952C176.258 89.4972 176.258 89.4992 176.258 89.5012C176.258 89.5032 176.258 89.5052 176.258 89.5072C176.258 89.5092 176.258 89.5112 176.258 89.5132C176.258 89.5152 176.258 89.5171 176.258 89.5191C176.258 89.5211 176.258 89.5231 176.258 89.5251C176.258 89.5271 176.258 89.5291 176.258 89.5311C176.258 89.533 176.258 89.535 176.258 89.537C176.258 89.539 176.258 89.541 176.258 89.5429C176.258 89.5449 176.258 89.5469 176.258 89.5489C176.258 89.5509 176.258 89.5528 176.258 89.5548C176.258 89.5568 176.258 89.5588 176.258 89.5607C176.258 89.5627 176.258 89.5647 176.258 89.5666C176.258 89.5686 176.258 89.5706 176.258 89.5726C176.258 89.5745 176.258 89.5765 176.258 89.5785C176.258 89.5804 176.258 89.5824 176.258 89.5844C176.258 89.5863 176.258 89.5883 176.258 89.5902C176.258 89.5922 176.258 89.5942 176.258 89.5961C176.258 89.5981 176.258 89.6 176.258 89.602C176.258 89.6039 176.258 89.6059 176.258 89.6079C176.258 89.6098 176.258 89.6118 176.258 89.6137C176.258 89.6157 176.258 89.6176 176.258 89.6196C176.258 89.6215 176.258 89.6235 176.258 89.6254C176.258 89.6274 176.258 89.6293 176.258 89.6313C176.258 89.6332 176.258 89.6351 176.258 89.6371C176.258 89.639 176.258 89.641 176.258 89.6429C176.258 89.6449 176.258 89.6468 176.258 89.6487C176.258 89.6507 176.258 89.6526 176.258 89.6545C176.258 89.6565 176.258 89.6584 176.258 89.6603C176.258 89.6623 176.258 89.6642 176.258 89.6661C176.258 89.6681 176.258 89.67 176.258 89.6719C176.258 89.6739 176.258 89.6758 176.258 89.6777C176.258 89.6796 176.258 89.6816 176.258 89.6835C176.258 89.6854 176.258 89.6873 176.258 89.6893C176.258 89.6912 176.258 89.6931 176.258 89.695C176.258 89.697 176.258 89.6989 176.258 89.7008C176.258 89.7027 176.258 89.7046 176.258 89.7065C176.258 89.7085 176.258 89.7104 176.258 89.7123C176.258 89.7142 176.258 89.7161 176.258 89.718C176.258 89.7199 176.258 89.7218 176.258 89.7237C176.258 89.7257 176.258 89.7276 176.258 89.7295C176.258 89.7314 176.258 89.7333 176.258 89.7352C176.258 89.7371 176.258 89.739 176.258 89.7409C176.258 89.7428 176.258 89.7447 176.258 89.7466C176.258 89.7485 176.258 89.7504 176.258 89.7523C176.258 89.7542 176.258 89.7561 176.258 89.758C176.258 89.7599 176.258 89.7618 176.258 89.7637C176.258 89.7655 176.258 89.7674 176.258 89.7693C176.258 89.7712 176.258 89.7731 176.258 89.775C176.258 89.7769 176.258 89.7788 176.258 89.7807C176.258 89.7825 176.258 89.7844 176.258 89.7863C176.258 89.7882 176.258 89.7901 176.258 89.792C176.258 89.7938 176.258 89.7957 176.258 89.7976C176.258 89.7995 176.258 89.8014 176.258 89.8032C176.258 89.8051 176.258 89.807 176.258 89.8089C176.258 89.8107 176.258 89.8126 176.258 89.8145C176.258 89.8164 176.258 89.8182 176.258 89.8201C176.258 89.822 176.258 89.8238 176.258 89.8257C176.258 89.8276 176.258 89.8294 176.258 89.8313C176.258 89.8332 176.258 89.835 176.258 89.8369C176.258 89.8388 176.258 89.8406 176.258 89.8425C176.258 89.8443 176.258 89.8462 176.258 89.8481C176.258 89.8499 176.258 89.8518 176.258 89.8536C176.258 89.8555 176.258 89.8573 176.258 89.8592C176.258 89.861 176.258 89.8629 176.258 89.8647C176.258 89.8666 176.258 89.8684 176.258 89.8703C176.258 89.8721 176.258 89.874 176.258 89.8758C176.258 89.8777 176.258 89.8795 176.258 89.8814C176.258 89.8832 176.258 89.8851 176.258 89.8869C176.258 89.8887 176.258 89.8906 176.258 89.8924C176.258 89.8943 176.258 89.8961 176.258 89.8979C176.258 89.8998 176.258 89.9016 176.258 89.9035C176.258 89.9053 176.258 89.9071 176.258 89.909C176.258 89.9108 176.258 89.9126 176.258 89.9145C176.258 89.9163 176.258 89.9181 176.258 89.9199C176.258 89.9218 176.258 89.9236 176.258 89.9254C176.258 89.9273 176.258 89.9291 176.258 89.9309C176.258 89.9327 176.258 89.9345 176.258 89.9364C176.258 89.9382 176.258 89.94 176.258 89.9418C176.258 89.9436 176.258 89.9455 176.258 89.9473C176.258 89.9491 176.258 89.9509 176.258 89.9527C176.258 89.9546 176.258 89.9564 176.258 89.9582C176.258 89.96 176.258 89.9618 176.258 89.9636C176.258 89.9654 176.258 89.9672 176.258 89.969C176.258 89.9708 176.258 89.9726 176.258 89.9745C176.258 89.9763 176.258 89.9781 176.258 89.9799C176.258 89.9817 176.258 89.9835 176.258 89.9853C176.258 89.9871 176.258 89.9889 176.258 89.9907C176.258 89.9925 176.258 89.9943 176.258 89.9961C176.258 89.9979 176.258 89.9997 176.258 90.0015C176.258 90.0033 176.258 90.005 176.258 90.0068C176.258 90.0086 176.258 90.0104 176.258 90.0122C176.258 90.014 176.258 90.0158 176.258 90.0176C176.258 90.0194 176.258 90.0211 176.258 90.0229C176.258 90.0247 176.258 90.0265 176.258 90.0283C176.258 90.0301 176.258 90.0318 176.258 90.0336C176.258 90.0354 176.258 90.0372 176.258 90.039C176.258 90.0407 176.258 90.0425 176.258 90.0443C176.258 90.0461 176.258 90.0478 176.258 90.0496C176.258 90.0514 176.258 90.0532 176.258 90.0549C176.258 90.0567 176.258 90.0585 176.258 90.0602C176.258 90.062 176.258 90.0638 176.258 90.0656C176.258 90.0673 176.258 90.0691 176.258 90.0708C176.258 90.0726 176.258 90.0744 176.258 90.0761C176.258 90.0779 176.258 90.0797 176.258 90.0814C176.258 90.0832 176.258 90.0849 176.258 90.0867C176.258 90.0885 176.258 90.0902 176.258 90.092C176.258 90.0937 176.258 90.0955 176.258 90.0972C176.258 90.099 176.258 90.1007 176.258 90.1025C176.258 90.1042 176.258 90.106 176.258 90.1077C176.258 90.1095 176.258 90.1112 176.258 90.113C176.258 90.1147 176.258 90.1165 176.258 90.1182C176.258 90.1199 176.258 90.1217 176.258 90.1234C176.258 90.1252 176.258 90.1269 176.258 90.1287C176.258 90.1304 176.258 90.1321 176.258 90.1339C176.258 90.1356 176.258 90.1373 176.258 90.1391C176.258 90.1408 176.258 90.1425 176.258 90.1443C176.258 90.146 176.258 90.1477 176.258 90.1495C176.258 90.1512 176.258 90.1529 176.258 90.1547C176.258 90.1564 176.258 90.1581 176.258 90.1598C176.258 90.1616 176.258 90.1633 176.258 90.165C176.258 90.1667 176.258 90.1685 176.258 90.1702C176.258 90.1719 176.258 90.1736 176.258 90.1753C176.258 90.1771 176.258 90.1788 176.258 90.1805C176.258 90.1822 176.258 90.1839 176.258 90.1856C176.258 90.1874 176.258 90.1891 176.258 90.1908C176.258 90.1925 176.258 90.1942 176.258 90.1959C176.258 90.1976 176.258 90.1993 176.258 90.201C176.258 90.2027 176.258 90.2044 176.258 90.2062C176.258 90.2079 176.258 90.2096 176.258 90.2113C176.258 90.213 176.258 90.2147 176.258 90.2164C176.258 90.2181 176.258 90.2198 176.258 90.2215C176.258 90.2232 176.258 90.2249 176.258 90.2266C176.258 90.2282 176.258 90.2299 176.258 90.2316C176.258 90.2333 176.258 90.235 176.258 90.2367C176.258 90.2384 176.258 90.2401 176.258 90.2418C176.258 90.2435 176.258 90.2452 176.258 90.2468C176.258 90.2485 176.258 90.2502 176.258 90.2519C176.258 90.2536 176.258 90.2553 176.258 90.257C176.258 90.2586 176.258 90.2603 176.258 90.262C176.258 90.2637 176.258 90.2654 176.258 90.267C176.258 90.2687 176.258 90.2704 176.258 90.2721C176.258 90.2737 176.258 90.2754 176.258 90.2771C176.258 90.2788 176.258 90.2804 176.258 90.2821C176.258 90.2838 176.258 90.2854 176.258 90.2871C176.258 90.2888 176.258 90.2904 176.258 90.2921C176.258 90.2938 176.258 90.2954 176.258 90.2971C176.258 90.2988 176.258 90.3004 176.258 90.3021C176.258 90.3038 176.258 90.3054 176.258 90.3071C176.258 90.3087 176.258 90.3104 176.258 90.312C176.258 90.3137 176.258 90.3154 176.258 90.317C176.258 90.3187 176.258 90.3203 176.258 90.322C176.258 90.3236 176.258 90.3253 176.258 90.3269C176.258 90.3286 176.258 90.3302 176.258 90.3319C176.258 90.3335 176.258 90.3352 176.258 90.3368C176.258 90.3385 176.258 90.3401 176.258 90.3418C176.258 90.3434 176.258 90.345 176.258 90.3467C176.258 90.3483 176.258 90.35 176.258 90.3516C176.258 90.3532 176.258 90.3549 176.258 90.3565C176.258 90.3581 176.258 90.3598 176.258 90.3614C176.258 90.363 176.258 90.3647 176.258 90.3663C176.258 90.3679 176.258 90.3696 176.258 90.3712C176.258 90.3728 176.258 90.3745 176.258 90.3761C176.258 90.3777 176.258 90.3793 176.258 90.381C176.258 90.3826 176.258 90.3842 176.258 90.3858C176.258 90.3875 176.258 90.3891 176.258 90.3907C176.258 90.3923 176.258 90.3939 176.258 90.3956C176.258 90.3972 176.258 90.3988 176.258 90.4004C176.258 90.402 176.258 90.4036 176.258 90.4053C176.258 90.4069 176.258 90.4085 176.258 90.4101C176.258 90.4117 176.258 90.4133 176.258 90.4149C176.258 90.4165 176.258 90.4181 176.258 90.4197C176.258 90.4213 176.258 90.423 176.258 90.4246C176.258 90.4262 176.258 90.4278 176.258 90.4294C176.258 90.431 176.258 90.4326 176.258 90.4342C176.258 90.4358 176.258 90.4374 176.258 90.439C176.258 90.4406 176.258 90.4422 176.258 90.4437C176.258 90.4453 176.258 90.4469 176.258 90.4485C176.258 90.4501 176.258 90.4517 176.258 90.4533C176.258 90.4549 176.258 90.4565 176.258 90.4581C176.258 90.4597 176.258 90.4613 176.258 90.4628C176.258 90.4644 176.258 90.466 176.258 90.4676C176.258 90.4692 176.258 90.4708 176.258 90.4723C176.258 90.4739 176.258 90.4755 176.258 90.4771C176.258 90.4787 176.258 90.4802 176.258 90.4818C176.258 90.4834 176.258 90.485 176.258 90.4865C176.258 90.4881 176.258 90.4897 176.258 90.4913C176.258 90.4928 176.258 90.4944 176.258 90.496C176.258 90.4975 176.258 90.4991 176.258 90.5007C176.258 90.5022 176.258 90.5038 176.258 90.5054C176.258 90.5069 176.258 90.5085 176.258 90.5101C176.258 90.5116 176.258 90.5132 176.258 90.5148C176.258 90.5163 176.258 90.5179 176.258 90.5194C176.258 90.521 176.258 90.5226 176.258 90.5241C176.258 90.5257 176.258 90.5272 176.258 90.5288C176.258 90.5303 176.258 90.5319 176.258 90.5334C176.258 90.535 176.258 90.5365 176.258 90.5381C176.258 90.5396 176.258 90.5412 176.258 90.5427C176.258 90.5443 176.258 90.5458 176.258 90.5474C176.258 90.5489 176.258 90.5505 176.258 90.552C176.258 90.5535 176.258 90.5551 176.258 90.5566C176.258 90.5582 176.258 90.5597 176.258 90.5612C176.258 90.5628 176.258 90.5643 176.258 90.5658C176.258 90.5674 176.258 90.5689 176.258 90.5704C176.258 90.572 176.258 90.5735 176.258 90.575C176.258 90.5766 176.258 90.5781 176.258 90.5796C176.258 90.5812 176.258 90.5827 176.258 90.5842C176.258 90.5857 176.258 90.5873 176.258 90.5888C176.258 90.5903 176.258 90.5918 176.258 90.5934C176.258 90.5949 176.258 90.5964 176.258 90.5979C176.258 90.5994 176.258 90.601 176.258 90.6025C176.258 90.604 176.258 90.6055 176.258 90.607C176.258 90.6085 176.258 90.6101 176.258 90.6116C176.258 90.6131 176.258 90.6146 176.258 90.6161C176.258 90.6176 176.258 90.6191 176.258 90.6206C176.258 90.6221 176.258 90.6236 176.258 90.6252C176.258 90.6267 176.258 90.6282 176.258 90.6297C176.258 90.6312 176.258 90.6327 176.258 90.6342C176.258 90.6357 176.258 90.6372 176.258 90.6387C176.258 90.6402 176.258 90.6417 176.258 90.6432C176.258 90.6447 176.258 90.6462 176.258 90.6477C176.258 90.6491 176.258 90.6506 176.258 90.6521C176.258 90.6536 176.258 90.6551 176.258 90.6566C176.258 90.6581 176.258 90.6596 176.258 90.6611C176.258 90.6626 176.258 90.664 176.258 90.6655C176.258 90.667 176.258 90.6685 176.258 90.67C176.258 90.6715 176.258 90.6729 176.258 90.6744C176.258 90.6759 176.258 90.6774 176.258 90.6789C176.258 90.6803 176.258 90.6818 176.258 90.6833C176.258 90.6848 176.258 90.6862 176.258 90.6877C176.258 90.6892 176.258 90.6907 176.258 90.6921C176.258 90.6936 176.258 90.6951 176.258 90.6965C176.258 90.698 176.258 90.6995 176.258 90.701C176.258 90.7024 176.258 90.7039 176.258 90.7054C176.258 90.7068 176.258 90.7083 176.258 90.7097C176.258 90.7112 176.258 90.7127 176.258 90.7141C176.258 90.7156 176.258 90.717 176.258 90.7185C176.258 90.72 176.258 90.7214 176.258 90.7229C176.258 90.7243 176.258 90.7258 176.258 90.7272C176.258 90.7287 176.258 90.7301 176.258 90.7316C176.258 90.733 176.258 90.7345 176.258 90.7359C176.258 90.7374 176.258 90.7388 176.258 90.7403C176.258 90.7417 176.258 90.7432 176.258 90.7446C176.258 90.7461 176.258 90.7475 176.258 90.7489C176.258 90.7504 176.258 90.7518 176.258 90.7533C176.258 90.7547 176.258 90.7561 176.258 90.7576C176.258 90.759 176.258 90.7605 176.258 90.7619C176.258 90.7633 176.258 90.7648 176.258 90.7662C176.258 90.7676 176.258 90.7691 176.258 90.7705C176.258 90.7719 176.258 90.7733 176.258 90.7748C176.258 90.7762 176.258 90.7776 176.258 90.7791C176.258 90.7805 176.258 90.7819 176.258 90.7833C176.258 90.7847 176.258 90.7862 176.258 90.7876C176.258 90.789 176.258 90.7904 176.258 90.7919C176.258 90.7933 176.258 90.7947 176.258 90.7961C176.258 90.7975 176.258 90.7989 176.258 90.8004C176.258 90.8018 176.258 90.8032 176.258 90.8046C176.258 90.806 176.258 90.8074 176.258 90.8088C176.258 90.8102 176.258 90.8116 176.258 90.813C176.258 90.8145 176.258 90.8159 176.258 90.8173C176.258 90.8187 176.258 90.8201 176.258 90.8215C176.258 90.8229 176.258 90.8243 176.258 90.8257C176.258 90.8271 176.258 90.8285 176.258 90.8299C176.258 90.8313 176.258 90.8327 176.258 90.8341C176.258 90.8355 176.258 90.8369 176.258 90.8383C176.258 90.8397 176.258 90.841 176.258 90.8424C176.258 90.8438 176.258 90.8452 176.258 90.8466C176.258 90.848 176.258 90.8494 176.258 90.8508C176.258 90.8522 176.258 90.8535 176.258 90.8549C176.258 90.8563 176.258 90.8577 176.258 90.8591C176.258 90.8605 176.258 90.8618 176.258 90.8632C176.258 90.8646 176.258 90.866 176.258 90.8674C176.258 90.8687 176.258 90.8701 176.258 90.8715C176.258 90.8729 176.258 90.8742 176.258 90.8756C176.258 90.877 176.258 90.8783 176.258 90.8797C176.258 90.8811 176.258 90.8825 176.258 90.8838C176.258 90.8852 176.258 90.8866 176.258 90.8879C176.258 90.8893 176.258 90.8907 176.258 90.892C176.258 90.8934 176.258 90.8948 176.258 90.8961C176.258 90.8975 176.258 90.8988 176.258 90.9002C176.258 90.9016 176.258 90.9029 176.258 90.9043C176.258 90.9056 176.258 90.907 176.258 90.9083C176.258 90.9097 176.258 90.911 176.258 90.9124C176.258 90.9137 176.258 90.9151 176.258 90.9165C176.258 90.9178 176.258 90.9192 176.258 90.9205C176.258 90.9219 176.258 90.9232 176.258 90.9245C176.258 90.9259 176.258 90.9272 176.258 90.9286C176.258 90.9299 176.258 90.9313 176.258 90.9326C176.258 90.9339 176.258 90.9353 176.258 90.9366C176.258 90.938 176.258 90.9393 176.258 90.9406C176.258 90.942 176.258 90.9433 176.258 90.9446C176.258 90.946 176.258 90.9473 176.258 90.9486C176.258 90.95 176.258 90.9513 176.258 90.9526C176.258 90.954 176.258 90.9553 176.258 90.9566C176.258 90.9579 176.258 90.9593 176.258 90.9606C176.258 90.9619 176.258 90.9632 176.258 90.9646C176.258 90.9659 176.258 90.9672 176.258 90.9685C176.258 90.9698 176.258 90.9712 176.258 90.9725C176.258 90.9738 176.258 90.9751 176.258 90.9764C176.258 90.9778 176.258 90.9791 176.258 90.9804C176.258 90.9817 176.258 90.983 176.258 90.9843C176.258 90.9856 176.258 90.9869 176.258 90.9883C176.258 90.9896 176.258 90.9909 176.258 90.9922C176.258 90.9935 176.258 90.9948 176.258 90.9961C176.258 90.9974 176.258 90.9987 176.258 91H178.258ZM178.258 88.1V53H176.258V88.1H178.258ZM178.258 53C178.258 51.4719 178.291 50.3763 178.354 49.6905L176.362 49.5095C176.291 50.2903 176.258 51.4614 176.258 53H178.258ZM178.344 49.7644C178.457 49.0862 178.718 48.3155 179.152 47.4472L177.363 46.5528C176.864 47.5511 176.525 48.5138 176.371 49.4356L178.344 49.7644ZM179.146 47.4603C179.457 46.8588 180.089 46.3167 181.235 45.92C182.388 45.5207 183.981 45.3 186.058 45.3V43.3C183.868 43.3 182.027 43.5293 180.581 44.03C179.127 44.5333 177.991 45.3412 177.37 46.5397L179.146 47.4603ZM186.058 45.3C188.005 45.3 189.521 45.488 190.64 45.8311C191.76 46.1746 192.393 46.6448 192.72 47.1463L194.395 46.0537C193.722 45.0218 192.606 44.3421 191.226 43.9189C189.845 43.4954 188.11 43.3 186.058 43.3V45.3ZM192.734 47.1665C193.369 48.091 193.658 48.9968 193.658 49.9H195.658C195.658 48.5366 195.213 47.2423 194.382 46.0335L192.734 47.1665ZM195.472 50.4812C195.775 50.0571 196.214 49.5214 196.801 48.869L195.315 47.531C194.702 48.2119 194.208 48.8096 193.844 49.3188L195.472 50.4812ZM196.765 48.9071C197.319 48.3532 198.567 47.5126 200.639 46.3768L199.677 44.6232C197.615 45.754 196.13 46.7135 195.351 47.4929L196.765 48.9071ZM200.639 46.3768C202.63 45.2847 204.259 44.8 205.558 44.8V42.8C203.79 42.8 201.819 43.4487 199.677 44.6232L200.639 46.3768ZM205.558 44.8C207.122 44.8 208.389 44.8982 209.374 45.0829L209.742 43.1171C208.593 42.9018 207.193 42.8 205.558 42.8V44.8ZM209.434 45.0923C210.428 45.2166 211.535 45.4677 212.757 45.8536L213.359 43.9464C212.047 43.5323 210.821 43.2501 209.682 43.1077L209.434 45.0923ZM259.961 70.6L259.314 69.8375L258.404 70.6098L259.324 71.3706L259.961 70.6ZM273.261 81.6L273.904 80.8343L273.898 80.8294L273.261 81.6ZM276.361 84.8L275.483 85.2788L275.499 85.3084L275.517 85.3369L276.361 84.8ZM273.961 93.4L274.738 94.0292L274.749 94.0163L274.759 94.0031L273.961 93.4ZM261.861 94.7L262.458 93.8975L262.446 93.889L262.434 93.8808L261.861 94.7ZM260.861 94L260.224 94.771L260.255 94.7964L260.287 94.8192L260.861 94ZM253.761 87.4L253.054 88.1071L253.061 88.1145L253.761 87.4ZM246.461 80.6L247.086 79.8191L245.461 78.5194V80.6H246.461ZM246.261 91.8L245.275 91.6356L245.268 91.6724L245.265 91.7095L246.261 91.8ZM245.361 94.4L244.479 93.9294L244.472 93.941L244.467 93.9528L245.361 94.4ZM229.961 94.3L229.055 94.7229L229.064 94.7418L229.073 94.7603L229.961 94.3ZM229.061 91.7L228.064 91.783L228.068 91.8313L228.077 91.8789L229.061 91.7ZM229.061 24.9L228.075 24.7356L228.068 24.7724L228.065 24.8095L229.061 24.9ZM229.961 22.2L229.073 21.7397L229.064 21.7582L229.055 21.7771L229.961 22.2ZM244.561 21.2L243.913 21.9619L243.919 21.967L243.925 21.9719L244.561 21.2ZM246.361 25.6L245.361 25.6333L245.363 25.672L245.367 25.7104L246.361 25.6ZM246.461 60.1H245.461V62.235L247.101 60.8682L246.461 60.1ZM251.861 55L251.164 54.2832L251.154 54.2929L251.861 55ZM257.361 49.9L256.806 49.0679L256.762 49.0976L256.721 49.1318L257.361 49.9ZM258.561 49.1L259.116 49.932L259.144 49.9129L259.172 49.8918L258.561 49.1ZM270.261 50.5L269.473 51.1153L269.481 51.1259L269.49 51.1364L270.261 50.5ZM269.861 62.2L269.219 61.4335L269.214 61.4375L269.861 62.2ZM259.324 71.3706L272.624 82.3706L273.898 80.8294L260.598 69.8294L259.324 71.3706ZM272.618 82.3657C274.295 83.7748 275.185 84.7325 275.483 85.2788L277.239 84.3211C276.737 83.4009 275.56 82.2252 273.904 80.8343L272.618 82.3657ZM275.517 85.3369C275.912 85.9577 276.061 86.4733 276.061 86.9H278.061C278.061 85.9934 277.743 85.109 277.205 84.2631L275.517 85.3369ZM276.061 86.9C276.061 87.4954 275.865 88.2843 275.383 89.2945C274.905 90.2972 274.172 91.4633 273.163 92.7969L274.759 94.0031C275.817 92.6034 276.633 91.3195 277.189 90.1555C277.74 88.9991 278.061 87.9046 278.061 86.9H276.061ZM273.184 92.7708C272.084 94.1292 271.084 95.1031 270.187 95.7308C269.289 96.3595 268.554 96.6 267.961 96.6V98.6C269.101 98.6 270.233 98.1405 271.334 97.3692C272.438 96.5968 273.571 95.4707 274.738 94.0292L273.184 92.7708ZM267.961 96.6C267.434 96.6 266.713 96.4223 265.765 95.9719C264.827 95.5258 263.726 94.8407 262.458 93.8975L261.264 95.5025C262.596 96.4927 263.812 97.2575 264.907 97.7781C265.992 98.2944 267.021 98.6 267.961 98.6V96.6ZM262.434 93.8808L261.434 93.1808L260.287 94.8192L261.287 95.5192L262.434 93.8808ZM261.498 93.229C260 91.9915 257.659 89.8172 254.461 86.6855L253.061 88.1145C256.263 91.2494 258.656 93.4752 260.224 94.771L261.498 93.229ZM254.468 86.6929C251.264 83.4889 248.798 81.1891 247.086 79.8191L245.836 81.3809C247.457 82.6775 249.858 84.911 253.054 88.1071L254.468 86.6929ZM245.461 80.6V88.3H247.461V80.6H245.461ZM245.461 88.3C245.461 89.8176 245.394 90.9184 245.275 91.6356L247.247 91.9644C247.394 91.0816 247.461 89.8491 247.461 88.3H245.461ZM245.265 91.7095C245.215 92.2578 244.979 92.9903 244.479 93.9294L246.243 94.8706C246.809 93.8097 247.173 92.8088 247.257 91.8905L245.265 91.7095ZM244.467 93.9528C244.192 94.5028 243.6 95.0196 242.466 95.4026C241.327 95.787 239.741 96 237.661 96V98C239.848 98 241.678 97.7797 243.106 97.2974C244.538 96.8138 245.664 96.0306 246.255 94.8472L244.467 93.9528ZM237.661 96C235.619 96 234.052 95.7795 232.917 95.3813C231.79 94.9862 231.163 94.4453 230.849 93.8397L229.073 94.7603C229.692 95.9547 230.815 96.7638 232.255 97.2687C233.686 97.7705 235.503 98 237.661 98V96ZM230.867 93.8771C230.421 92.9214 230.157 92.1403 230.045 91.5211L228.077 91.8789C228.231 92.7264 228.567 93.6786 229.055 94.7229L230.867 93.8771ZM230.057 91.617C229.994 90.8592 229.961 89.7257 229.961 88.2H227.961C227.961 89.741 227.994 90.9408 228.064 91.783L230.057 91.617ZM229.961 88.2V28.3H227.961V88.2H229.961ZM229.961 28.3C229.961 26.7719 229.994 25.6763 230.057 24.9905L228.065 24.8095C227.994 25.5903 227.961 26.7614 227.961 28.3H229.961ZM230.047 25.0644C230.161 24.3794 230.426 23.5681 230.867 22.6229L229.055 21.7771C228.563 22.8319 228.227 23.8206 228.075 24.7356L230.047 25.0644ZM230.849 22.6603C231.161 22.0588 231.792 21.5167 232.938 21.12C234.091 20.7207 235.685 20.5 237.761 20.5V18.5C235.571 18.5 233.73 18.7293 232.284 19.23C230.83 19.7333 229.695 20.5412 229.073 21.7397L230.849 22.6603ZM237.761 20.5C240.898 20.5 242.86 21.0664 243.913 21.9619L245.209 20.4381C243.595 19.0669 241.024 18.5 237.761 18.5V20.5ZM243.925 21.9719C244.765 22.6633 245.301 23.8113 245.361 25.6333L247.36 25.5667C247.288 23.3887 246.624 21.6034 245.197 20.4281L243.925 21.9719ZM245.367 25.7104C245.427 26.2523 245.461 27.1394 245.461 28.4H247.461C247.461 27.1273 247.428 26.1477 247.355 25.4896L245.367 25.7104ZM245.461 28.4V60.1H247.461V28.4H245.461ZM247.101 60.8682C248.338 59.8372 250.165 58.1097 252.568 55.7071L251.154 54.2929C248.756 56.6903 246.984 58.3628 245.821 59.3318L247.101 60.8682ZM252.558 55.7167C255.023 53.3186 256.833 51.6418 258.001 50.6682L256.721 49.1318C255.489 50.1582 253.632 51.8814 251.164 54.2833L252.558 55.7167ZM257.916 50.732L259.116 49.932L258.006 48.2679L256.806 49.0679L257.916 50.732ZM259.172 49.8918C261.45 48.1345 263.23 47.4 264.561 47.4V45.4C262.559 45.4 260.339 46.4655 257.95 48.3082L259.172 49.8918ZM264.561 47.4C265.115 47.4 265.805 47.6278 266.652 48.2368C267.497 48.8449 268.439 49.7911 269.473 51.1153L271.049 49.8847C269.949 48.4755 268.874 47.3717 267.82 46.6132C266.766 45.8555 265.673 45.4 264.561 45.4V47.4ZM269.49 51.1364C270.564 52.4383 271.343 53.5711 271.85 54.539C272.362 55.5168 272.561 56.2596 272.561 56.8H274.561C274.561 55.8071 274.21 54.7332 273.622 53.611C273.029 52.4789 272.158 51.2284 271.032 49.8636L269.49 51.1364ZM272.561 56.8C272.561 57.2961 272.36 57.9336 271.811 58.7348C271.264 59.5333 270.412 60.4337 269.219 61.4335L270.503 62.9665C271.777 61.8996 272.775 60.8667 273.461 59.8652C274.145 58.8664 274.561 57.8372 274.561 56.8H272.561ZM269.214 61.4375L259.314 69.8375L260.608 71.3625L270.508 62.9625L269.214 61.4375Z" fill="#2644F5"/>
</svg>
