<svg width="269" height="79" viewBox="0 0 269 79" fill="none" xmlns="http://www.w3.org/2000/svg">
<path d="M91.1258 5.1C95.5925 6.7 97.8258 8.83333 97.8258 11.5C97.8258 12.3667 97.4258 14 96.6258 16.4L77.4258 71.9C77.2925 72.3667 77.0591 72.9333 76.7258 73.6C76.3925 74.2667 75.4925 75.1667 74.0258 76.3C72.6258 77.3667 70.9258 77.9 68.9258 77.9C66.9925 77.9 65.2925 77.3667 63.8258 76.3C62.4258 75.1667 61.4925 74.0667 61.0258 73L49.3258 38.5C41.9258 60.3667 38.1591 71.5 38.0258 71.9C37.8924 72.3 37.5924 72.8667 37.1258 73.6C36.6591 74.3333 36.1258 75 35.5258 75.6C33.9925 77.1333 32.1591 77.9 30.0258 77.9C27.8924 77.9 26.1258 77.4 24.7258 76.4C23.3924 75.4 22.4924 74.4 22.0258 73.4L21.3258 71.9L2.02578 16.4C1.29245 14.2 0.925781 12.5667 0.925781 11.5C0.925781 8.83333 3.15911 6.73333 7.62578 5.2C9.55912 4.53333 11.2924 4.2 12.8258 4.2C14.4258 4.2 15.6258 4.73333 16.4258 5.79999C17.2924 6.86666 18.0591 8.5 18.7258 10.7L29.7258 44.1L40.6258 11.2C41.5591 8.4 43.2591 6.46666 45.7258 5.4C46.7925 4.93333 48.1591 4.7 49.8258 4.7C51.5591 4.7 53.1591 5.26666 54.6258 6.4C56.0924 7.46666 57.0258 8.53333 57.4258 9.6L68.9258 44.3L79.9258 10.7C80.4591 9.16666 80.8925 8.03333 81.2258 7.3C81.5591 6.56666 82.1591 5.86666 83.0258 5.2C83.9591 4.46666 85.0925 4.1 86.4258 4.1C87.7591 4.1 89.3258 4.43333 91.1258 5.1ZM100.797 51.7C100.797 43.7 103.597 37.1 109.197 31.9C114.797 26.7 121.197 24.1 128.397 24.1C135.597 24.1 141.964 26.7 147.497 31.9C153.03 37.0333 155.797 43.6 155.797 51.6C155.797 57.1333 154.364 62.0667 151.497 66.4C148.63 70.6667 145.13 73.8333 140.997 75.9C136.93 77.9 132.697 78.9 128.297 78.9C123.897 78.9 119.63 77.8333 115.497 75.7C111.364 73.5 107.864 70.3 104.997 66.1C102.197 61.8333 100.797 57.0333 100.797 51.7ZM121.697 58.9C123.83 60.5 125.997 61.3 128.197 61.3C130.397 61.3 132.597 60.4667 134.797 58.8C136.997 57.1333 138.097 54.6667 138.097 51.4C138.097 48.1333 137.064 45.7 134.997 44.1C132.93 42.5 130.697 41.7 128.297 41.7C125.897 41.7 123.664 42.5333 121.597 44.2C119.53 45.8667 118.497 48.3333 118.497 51.6C118.497 54.8 119.564 57.2333 121.697 58.9ZM204.058 25.9C205.324 26.3 206.358 27 207.158 28C208.024 28.9333 208.458 30.4667 208.458 32.6C208.458 34.7333 207.824 37.0667 206.558 39.6C205.291 42.1333 203.458 43.4 201.058 43.4C199.858 43.4 198.691 43.1333 197.558 42.6C196.491 42.0667 195.058 41.8 193.258 41.8C191.458 41.8 189.758 42.4333 188.158 43.7C186.624 44.9667 185.858 46.5 185.858 48.3V69.3C185.858 70.8333 185.791 72 185.658 72.8C185.591 73.5333 185.291 74.4 184.758 75.4C183.758 77.1333 181.158 78 176.958 78C173.758 78 171.458 77.4333 170.058 76.3C168.991 75.3667 168.391 73.9333 168.258 72C168.258 71.3333 168.258 70.3667 168.258 69.1V34C168.258 32.4667 168.291 31.3333 168.358 30.6C168.491 29.8 168.791 28.9333 169.258 28C170.191 26.2 172.791 25.3 177.058 25.3C181.058 25.3 183.558 26.0667 184.558 27.6C185.291 28.6667 185.658 29.7667 185.658 30.9C185.991 30.4333 186.458 29.8667 187.058 29.2C187.724 28.5333 189.091 27.6333 191.158 26.5C193.224 25.3667 195.024 24.8 196.558 24.8C198.158 24.8 199.491 24.9 200.558 25.1C201.624 25.2333 202.791 25.5 204.058 25.9ZM250.961 51.6L264.261 62.6C265.928 64 266.961 65.0667 267.361 65.8C267.828 66.5333 268.061 67.2333 268.061 67.9C268.061 69.5 267.028 71.6667 264.961 74.4C262.694 77.2 260.694 78.6 258.961 78.6C257.494 78.6 255.461 77.6333 252.861 75.7L251.861 75C250.328 73.7333 247.961 71.5333 244.761 68.4C241.561 65.2 239.128 62.9333 237.461 61.6V69.3C237.461 70.8333 237.394 72 237.261 72.8C237.194 73.5333 236.894 74.4 236.361 75.4C235.494 77.1333 232.928 78 228.661 78C224.461 78 221.894 77.1 220.961 75.3C220.494 74.3 220.194 73.4333 220.061 72.7C219.994 71.9 219.961 70.7333 219.961 69.2V9.3C219.961 7.76666 219.994 6.63333 220.061 5.9C220.194 5.1 220.494 4.2 220.961 3.2C221.894 1.4 224.494 0.499996 228.761 0.499996C231.961 0.499996 234.228 1.06666 235.561 2.2C236.694 3.13333 237.294 4.6 237.361 6.6C237.428 7.2 237.461 8.13333 237.461 9.4V41.1C238.661 40.1 240.461 38.4 242.861 36C245.328 33.6 247.161 31.9 248.361 30.9L249.561 30.1C251.894 28.3 253.894 27.4 255.561 27.4C257.228 27.4 259.128 28.7667 261.261 31.5C263.461 34.1667 264.561 36.2667 264.561 37.8C264.561 39.3333 263.328 41.1333 260.861 43.2L250.961 51.6Z" fill="#2644F5"/>
</svg>
