<svg width="269" height="79" viewBox="0 0 269 79" fill="none" xmlns="http://www.w3.org/2000/svg">
<path d="M91.1258 5.1L90.7785 6.0378L90.7886 6.04142L91.1258 5.1ZM96.6258 16.4L97.5709 16.727L97.5745 16.7162L96.6258 16.4ZM77.4258 71.9L76.4807 71.5731L76.4718 71.5989L76.4643 71.6253L77.4258 71.9ZM76.7258 73.6L77.6202 74.0472L77.6202 74.0472L76.7258 73.6ZM74.0258 76.3L74.6318 77.0955L74.6372 77.0913L74.0258 76.3ZM63.8258 76.3L63.1966 77.0772L63.2167 77.0935L63.2376 77.1087L63.8258 76.3ZM61.0258 73L60.0788 73.3212L60.0925 73.3617L60.1096 73.4008L61.0258 73ZM49.3258 38.5L50.2728 38.1788L49.3248 35.3834L48.3786 38.1794L49.3258 38.5ZM38.0258 71.9L37.0771 71.5838L37.0771 71.5838L38.0258 71.9ZM37.1258 73.6L36.2821 73.0631L36.2821 73.0631L37.1258 73.6ZM35.5258 75.6L36.2329 76.3071L36.2329 76.3071L35.5258 75.6ZM24.7258 76.4L24.1258 77.2L24.1351 77.207L24.1445 77.2137L24.7258 76.4ZM22.0258 73.4L22.932 72.9771L22.932 72.9771L22.0258 73.4ZM21.3258 71.9L20.3813 72.2285L20.398 72.2766L20.4196 72.3229L21.3258 71.9ZM2.02578 16.4L1.07702 16.7162L1.08126 16.7284L2.02578 16.4ZM7.62578 5.2L7.95047 6.14582L7.95177 6.14537L7.62578 5.2ZM16.4258 5.79999L15.6258 6.39999L15.6374 6.41552L15.6497 6.43059L16.4258 5.79999ZM18.7258 10.7L17.7688 10.99L17.7722 11.0014L17.776 11.0128L18.7258 10.7ZM29.7258 44.1L28.776 44.4128L29.723 47.2882L30.675 44.4145L29.7258 44.1ZM40.6258 11.2L39.6771 10.8838L39.6765 10.8855L40.6258 11.2ZM45.7258 5.4L46.1227 6.31786L46.1266 6.31616L45.7258 5.4ZM54.6258 6.4L54.0143 7.19128L54.0258 7.20018L54.0376 7.20873L54.6258 6.4ZM57.4258 9.6L58.375 9.28541L58.3689 9.26702L58.3621 9.24887L57.4258 9.6ZM68.9258 44.3L67.9766 44.6146L68.9316 47.4963L69.8762 44.6111L68.9258 44.3ZM79.9258 10.7L78.9813 10.3715L78.9783 10.3801L78.9754 10.3889L79.9258 10.7ZM81.2258 7.3L82.1361 7.7138L82.1362 7.7138L81.2258 7.3ZM83.0258 5.2L83.6355 5.99266L83.6436 5.98631L83.0258 5.2ZM90.7886 6.04142C95.1962 7.62029 96.8258 9.52752 96.8258 11.5H98.8258C98.8258 8.13914 95.9887 5.7797 91.463 4.15857L90.7886 6.04142ZM96.8258 11.5C96.8258 11.8097 96.7497 12.34 96.5545 13.1371C96.3633 13.9178 96.0723 14.8981 95.6771 16.0838L97.5745 16.7162C97.9793 15.5019 98.2883 14.4655 98.4971 13.6129C98.7019 12.7767 98.8258 12.057 98.8258 11.5H96.8258ZM95.6807 16.0731L76.4807 71.5731L78.3708 72.2269L97.5708 16.7269L95.6807 16.0731ZM76.4643 71.6253C76.3544 72.0099 76.15 72.5154 75.8314 73.1528L77.6202 74.0472C77.9682 73.3512 78.2305 72.7234 78.3873 72.1747L76.4643 71.6253ZM75.8314 73.1528C75.735 73.3455 75.5134 73.6481 75.0937 74.0679C74.6839 74.4777 74.1277 74.9575 73.4143 75.5087L74.6372 77.0913C75.3905 76.5092 76.0177 75.9723 76.5079 75.4821C76.9881 75.0019 77.3832 74.5212 77.6202 74.0472L75.8314 73.1528ZM73.4197 75.5046C72.2172 76.4208 70.7381 76.9 68.9258 76.9V78.9C71.1135 78.9 73.0343 78.3126 74.6318 77.0954L73.4197 75.5046ZM68.9258 76.9C67.189 76.9 65.6981 76.4252 64.414 75.4913L63.2376 77.1087C64.8868 78.3081 66.7959 78.9 68.9258 78.9V76.9ZM64.455 75.5228C63.1177 74.4402 62.3188 73.4606 61.9419 72.5992L60.1096 73.4008C60.6661 74.6728 61.7339 75.8932 63.1966 77.0772L64.455 75.5228ZM61.9728 72.6788L50.2728 38.1788L48.3788 38.8212L60.0788 73.3212L61.9728 72.6788ZM48.3786 38.1794C40.9795 60.0434 37.2114 71.1809 37.0771 71.5838L38.9745 72.2162C39.1068 71.8191 42.8721 60.6899 50.273 38.8206L48.3786 38.1794ZM37.0771 71.5838C36.9846 71.8613 36.741 72.3421 36.2821 73.0631L37.9694 74.1369C38.4439 73.3913 38.8003 72.7387 38.9745 72.2162L37.0771 71.5838ZM36.2821 73.0631C35.8537 73.7364 35.3658 74.3457 34.8187 74.8929L36.2329 76.3071C36.8857 75.6543 37.4646 74.9303 37.9694 74.1369L36.2821 73.0631ZM34.8187 74.8929C33.4694 76.2422 31.889 76.9 30.0258 76.9V78.9C32.4292 78.9 34.5155 78.0245 36.2329 76.3071L34.8187 74.8929ZM30.0258 76.9C28.0503 76.9 26.5004 76.4387 25.307 75.5863L24.1445 77.2137C25.7511 78.3613 27.7346 78.9 30.0258 78.9V76.9ZM25.3258 75.6C24.0624 74.6524 23.3026 73.7713 22.932 72.9771L21.1196 73.8229C21.6823 75.0287 22.7225 76.1476 24.1258 77.2L25.3258 75.6ZM22.932 72.9771L22.232 71.4771L20.4196 72.3229L21.1196 73.8229L22.932 72.9771ZM22.2703 71.5715L2.9703 16.0715L1.08126 16.7284L20.3813 72.2285L22.2703 71.5715ZM2.97446 16.0838C2.2448 13.8948 1.92578 12.3932 1.92578 11.5H-0.0742187C-0.0742187 12.7401 0.340099 14.5052 1.0771 16.7162L2.97446 16.0838ZM1.92578 11.5C1.92578 9.53572 3.54429 7.65839 7.95047 6.14582L7.3011 4.25417C2.77394 5.80827 -0.0742187 8.13094 -0.0742187 11.5H1.92578ZM7.95177 6.14537C9.81303 5.50356 11.4335 5.2 12.8258 5.2V3.2C11.1514 3.2 9.3052 3.5631 7.29979 4.25462L7.95177 6.14537ZM12.8258 5.2C14.1818 5.2 15.0534 5.63683 15.6258 6.39999L17.2258 5.19999C16.1982 3.82983 14.6698 3.2 12.8258 3.2V5.2ZM15.6497 6.43059C16.3975 7.351 17.1178 8.84188 17.7688 10.99L19.6828 10.41C19.0004 8.15811 18.1874 6.38233 17.2019 5.1694L15.6497 6.43059ZM17.776 11.0128L28.776 44.4128L30.6756 43.7872L19.6756 10.3872L17.776 11.0128ZM30.675 44.4145L41.575 11.5145L39.6765 10.8855L28.7765 43.7855L30.675 44.4145ZM41.5745 11.5162C42.4277 8.95645 43.9446 7.25975 46.1227 6.31786L45.3289 4.48214C42.5737 5.67358 40.6905 7.84355 39.6771 10.8838L41.5745 11.5162ZM46.1266 6.31616C47.0247 5.92324 48.2421 5.7 49.8258 5.7V3.7C48.0762 3.7 46.5602 3.94342 45.325 4.48384L46.1266 6.31616ZM49.8258 5.7C51.322 5.7 52.7098 6.18324 54.0143 7.19128L55.2372 5.60871C53.6084 4.35009 51.7963 3.7 49.8258 3.7V5.7ZM54.0376 7.20873C55.4317 8.22262 56.1878 9.14676 56.4895 9.95112L58.3621 9.24887C57.8637 7.9199 56.7532 6.71071 55.214 5.59126L54.0376 7.20873ZM56.4766 9.91458L67.9766 44.6146L69.875 43.9854L58.375 9.28541L56.4766 9.91458ZM69.8762 44.6111L80.8762 11.0111L78.9754 10.3889L67.9754 43.9889L69.8762 44.6111ZM80.8703 11.0285C81.4015 9.50132 81.8226 8.4036 82.1361 7.7138L80.3154 6.88619C79.9623 7.66306 79.5168 8.83201 78.9813 10.3715L80.8703 11.0285ZM82.1362 7.7138C82.3819 7.17308 82.8543 6.59354 83.6355 5.99262L82.4161 4.40737C81.4639 5.13978 80.7363 5.96024 80.3154 6.8862L82.1362 7.7138ZM83.6436 5.98631C84.3791 5.40841 85.2874 5.1 86.4258 5.1V3.1C84.8975 3.1 83.5391 3.52492 82.408 4.41368L83.6436 5.98631ZM86.4258 5.1C87.6008 5.1 89.0449 5.3957 90.7785 6.03775L91.4731 4.16225C89.6066 3.47096 87.9175 3.1 86.4258 3.1V5.1ZM109.197 31.9L109.877 32.6328L109.877 32.6328L109.197 31.9ZM147.497 31.9L146.812 32.6287L146.817 32.6331L147.497 31.9ZM151.497 66.4L152.327 66.9577L152.331 66.9517L151.497 66.4ZM140.997 75.9L141.438 76.7974L141.444 76.7944L140.997 75.9ZM115.497 75.7L115.027 76.5828L115.038 76.5886L115.497 75.7ZM104.997 66.1L104.161 66.6487L104.166 66.6562L104.171 66.6637L104.997 66.1ZM121.697 58.9L121.081 59.688L121.089 59.6941L121.097 59.7L121.697 58.9ZM134.797 58.8L134.193 58.0029L134.193 58.0029L134.797 58.8ZM134.997 44.1L134.385 44.8907L134.385 44.8907L134.997 44.1ZM121.597 44.2L120.969 43.4216L120.969 43.4216L121.597 44.2ZM101.797 51.7C101.797 43.9634 104.492 37.6338 109.877 32.6328L108.516 31.1672C102.702 36.5662 99.7969 43.4366 99.7969 51.7H101.797ZM109.877 32.6328C115.305 27.593 121.466 25.1 128.397 25.1V23.1C120.928 23.1 114.289 25.807 108.516 31.1672L109.877 32.6328ZM128.397 25.1C135.328 25.1 141.453 27.5925 146.812 32.6287L148.182 31.1713C142.474 25.8075 135.866 23.1 128.397 23.1V25.1ZM146.817 32.6331C152.133 37.5648 154.797 43.8595 154.797 51.6H156.797C156.797 43.3405 153.928 36.5018 148.177 31.1669L146.817 32.6331ZM154.797 51.6C154.797 56.9505 153.414 61.6894 150.663 65.8483L152.331 66.9517C155.313 62.4439 156.797 57.3162 156.797 51.6H154.797ZM150.667 65.8423C147.885 69.982 144.512 73.0246 140.55 75.0056L141.444 76.7944C145.749 74.6421 149.375 71.3513 152.327 66.9577L150.667 65.8423ZM140.556 75.0026C136.622 76.9372 132.539 77.9 128.297 77.9V79.9C132.855 79.9 137.238 78.8628 141.438 76.7973L140.556 75.0026ZM128.297 77.9C124.066 77.9 119.955 76.8758 115.956 74.8114L115.038 76.5886C119.305 78.7908 123.728 79.9 128.297 79.9V77.9ZM115.967 74.8173C111.988 72.6996 108.606 69.6144 105.823 65.5363L104.171 66.6637C107.121 70.9856 110.739 74.3004 115.027 76.5827L115.967 74.8173ZM105.833 65.5513C103.145 61.4552 101.797 56.8476 101.797 51.7H99.7969C99.7969 57.219 101.249 62.2114 104.161 66.6487L105.833 65.5513ZM121.097 59.7C123.366 61.4016 125.738 62.3 128.197 62.3V60.3C126.256 60.3 124.295 59.5984 122.297 58.1L121.097 59.7ZM128.197 62.3C130.665 62.3 133.072 61.3614 135.401 59.5971L134.193 58.0029C132.122 59.5719 130.129 60.3 128.197 60.3V62.3ZM135.401 59.5971C137.898 57.7054 139.097 54.915 139.097 51.4H137.097C137.097 54.4184 136.096 56.5612 134.193 58.0029L135.401 59.5971ZM139.097 51.4C139.097 47.9092 137.981 45.1454 135.609 43.3093L134.385 44.8907C136.146 46.2546 137.097 48.3575 137.097 51.4H139.097ZM135.609 43.3093C133.384 41.5864 130.939 40.7 128.297 40.7V42.7C130.455 42.7 132.477 43.4136 134.385 44.8907L135.609 43.3093ZM128.297 40.7C125.644 40.7 123.194 41.6277 120.969 43.4216L122.225 44.9784C124.134 43.4389 126.15 42.7 128.297 42.7V40.7ZM120.969 43.4216C118.613 45.3215 117.497 48.1076 117.497 51.6H119.497C119.497 48.5591 120.447 46.4118 122.225 44.9784L120.969 43.4216ZM117.497 51.6C117.497 55.045 118.66 57.7963 121.081 59.688L122.313 58.112C120.467 56.6704 119.497 54.555 119.497 51.6H117.497ZM204.058 25.9L204.359 24.9464L204.359 24.9464L204.058 25.9ZM207.158 28L206.377 28.6247L206.4 28.6535L206.425 28.6805L207.158 28ZM206.558 39.6L205.663 39.1528L205.663 39.1528L206.558 39.6ZM197.558 42.6L197.111 43.4944L197.121 43.4998L197.132 43.5048L197.558 42.6ZM188.158 43.7L187.537 42.916L187.529 42.9224L187.521 42.929L188.158 43.7ZM185.658 72.8L184.671 72.6356L184.665 72.6724L184.662 72.7095L185.658 72.8ZM184.758 75.4L185.624 75.8997L185.632 75.8853L185.64 75.8706L184.758 75.4ZM170.058 76.3L169.399 77.0526L169.414 77.0652L169.429 77.0772L170.058 76.3ZM168.258 72H167.258V72.0344L167.26 72.0688L168.258 72ZM168.358 30.6L167.371 30.4356L167.365 30.4724L167.362 30.5095L168.358 30.6ZM169.258 28L168.37 27.5397L168.367 27.5462L168.363 27.5528L169.258 28ZM184.558 27.6L183.72 28.1463L183.727 28.1565L183.734 28.1665L184.558 27.6ZM185.658 30.9H184.658V34.0205L186.472 31.4812L185.658 30.9ZM187.058 29.2L186.351 28.4929L186.332 28.5115L186.315 28.531L187.058 29.2ZM191.158 26.5L190.677 25.6232L190.677 25.6232L191.158 26.5ZM200.558 25.1L200.374 26.0829L200.404 26.0885L200.434 26.0923L200.558 25.1ZM203.757 26.8536C204.842 27.1963 205.706 27.7854 206.377 28.6247L207.939 27.3753C207.01 26.2146 205.807 25.4037 204.359 24.9464L203.757 26.8536ZM206.425 28.6805C207.036 29.3383 207.458 30.5601 207.458 32.6H209.458C209.458 30.3733 209.013 28.5283 207.891 27.3195L206.425 28.6805ZM207.458 32.6C207.458 34.5358 206.882 36.7147 205.663 39.1528L207.452 40.0472C208.767 37.4186 209.458 34.9309 209.458 32.6H207.458ZM205.663 39.1528C205.085 40.3088 204.41 41.1122 203.664 41.6273C202.928 42.1362 202.071 42.4 201.058 42.4V44.4C202.444 44.4 203.704 44.0305 204.801 43.2727C205.889 42.5211 206.764 41.4246 207.452 40.0472L205.663 39.1528ZM201.058 42.4C200.011 42.4 198.99 42.1686 197.984 41.6952L197.132 43.5048C198.393 44.098 199.704 44.4 201.058 44.4V42.4ZM198.005 41.7056C196.747 41.0765 195.141 40.8 193.258 40.8V42.8C194.975 42.8 196.235 43.0569 197.111 43.4944L198.005 41.7056ZM193.258 40.8C191.203 40.8 189.289 41.5291 187.537 42.916L188.779 44.484C190.227 43.3375 191.713 42.8 193.258 42.8V40.8ZM187.521 42.929C185.785 44.3631 184.858 46.168 184.858 48.3H186.858C186.858 46.832 187.464 45.5702 188.795 44.471L187.521 42.929ZM184.858 48.3V69.3H186.858V48.3H184.858ZM184.858 69.3C184.858 70.8176 184.791 71.9184 184.671 72.6356L186.644 72.9644C186.791 72.0816 186.858 70.8491 186.858 69.3H184.858ZM184.662 72.7095C184.612 73.2578 184.376 73.9903 183.875 74.9294L185.64 75.8706C186.206 74.8097 186.57 73.8088 186.654 72.8905L184.662 72.7095ZM183.892 74.9003C183.553 75.4877 182.896 76.0166 181.742 76.4013C180.583 76.7876 179.001 77 176.958 77V79C179.114 79 180.933 78.779 182.374 78.2987C183.82 77.8167 184.963 77.0456 185.624 75.8997L183.892 74.9003ZM176.958 77C173.828 77 171.816 76.4365 170.687 75.5228L169.429 77.0772C171.1 78.4302 173.688 79 176.958 79V77ZM170.716 75.5474C169.913 74.8442 169.377 73.6999 169.255 71.9312L167.26 72.0688C167.405 74.1668 168.07 75.8891 169.399 77.0526L170.716 75.5474ZM169.258 72C169.258 71.9987 169.258 71.9974 169.258 71.9961C169.258 71.9948 169.258 71.9935 169.258 71.9922C169.258 71.9909 169.258 71.9896 169.258 71.9883C169.258 71.9869 169.258 71.9856 169.258 71.9843C169.258 71.983 169.258 71.9817 169.258 71.9804C169.258 71.9791 169.258 71.9778 169.258 71.9764C169.258 71.9751 169.258 71.9738 169.258 71.9725C169.258 71.9712 169.258 71.9699 169.258 71.9685C169.258 71.9672 169.258 71.9659 169.258 71.9646C169.258 71.9632 169.258 71.9619 169.258 71.9606C169.258 71.9593 169.258 71.9579 169.258 71.9566C169.258 71.9553 169.258 71.954 169.258 71.9526C169.258 71.9513 169.258 71.95 169.258 71.9486C169.258 71.9473 169.258 71.946 169.258 71.9446C169.258 71.9433 169.258 71.942 169.258 71.9406C169.258 71.9393 169.258 71.938 169.258 71.9366C169.258 71.9353 169.258 71.9339 169.258 71.9326C169.258 71.9313 169.258 71.9299 169.258 71.9286C169.258 71.9272 169.258 71.9259 169.258 71.9245C169.258 71.9232 169.258 71.9218 169.258 71.9205C169.258 71.9192 169.258 71.9178 169.258 71.9165C169.258 71.9151 169.258 71.9138 169.258 71.9124C169.258 71.911 169.258 71.9097 169.258 71.9083C169.258 71.907 169.258 71.9056 169.258 71.9043C169.258 71.9029 169.258 71.9016 169.258 71.9002C169.258 71.8988 169.258 71.8975 169.258 71.8961C169.258 71.8948 169.258 71.8934 169.258 71.892C169.258 71.8907 169.258 71.8893 169.258 71.8879C169.258 71.8866 169.258 71.8852 169.258 71.8838C169.258 71.8825 169.258 71.8811 169.258 71.8797C169.258 71.8784 169.258 71.877 169.258 71.8756C169.258 71.8742 169.258 71.8729 169.258 71.8715C169.258 71.8701 169.258 71.8687 169.258 71.8674C169.258 71.866 169.258 71.8646 169.258 71.8632C169.258 71.8618 169.258 71.8605 169.258 71.8591C169.258 71.8577 169.258 71.8563 169.258 71.8549C169.258 71.8535 169.258 71.8522 169.258 71.8508C169.258 71.8494 169.258 71.848 169.258 71.8466C169.258 71.8452 169.258 71.8438 169.258 71.8424C169.258 71.841 169.258 71.8397 169.258 71.8383C169.258 71.8369 169.258 71.8355 169.258 71.8341C169.258 71.8327 169.258 71.8313 169.258 71.8299C169.258 71.8285 169.258 71.8271 169.258 71.8257C169.258 71.8243 169.258 71.8229 169.258 71.8215C169.258 71.8201 169.258 71.8187 169.258 71.8173C169.258 71.8159 169.258 71.8145 169.258 71.813C169.258 71.8116 169.258 71.8102 169.258 71.8088C169.258 71.8074 169.258 71.806 169.258 71.8046C169.258 71.8032 169.258 71.8018 169.258 71.8004C169.258 71.7989 169.258 71.7975 169.258 71.7961C169.258 71.7947 169.258 71.7933 169.258 71.7919C169.258 71.7904 169.258 71.789 169.258 71.7876C169.258 71.7862 169.258 71.7847 169.258 71.7833C169.258 71.7819 169.258 71.7805 169.258 71.7791C169.258 71.7776 169.258 71.7762 169.258 71.7748C169.258 71.7733 169.258 71.7719 169.258 71.7705C169.258 71.7691 169.258 71.7676 169.258 71.7662C169.258 71.7648 169.258 71.7633 169.258 71.7619C169.258 71.7605 169.258 71.759 169.258 71.7576C169.258 71.7561 169.258 71.7547 169.258 71.7533C169.258 71.7518 169.258 71.7504 169.258 71.7489C169.258 71.7475 169.258 71.7461 169.258 71.7446C169.258 71.7432 169.258 71.7417 169.258 71.7403C169.258 71.7388 169.258 71.7374 169.258 71.7359C169.258 71.7345 169.258 71.733 169.258 71.7316C169.258 71.7301 169.258 71.7287 169.258 71.7272C169.258 71.7258 169.258 71.7243 169.258 71.7229C169.258 71.7214 169.258 71.72 169.258 71.7185C169.258 71.717 169.258 71.7156 169.258 71.7141C169.258 71.7127 169.258 71.7112 169.258 71.7097C169.258 71.7083 169.258 71.7068 169.258 71.7053C169.258 71.7039 169.258 71.7024 169.258 71.701C169.258 71.6995 169.258 71.698 169.258 71.6965C169.258 71.6951 169.258 71.6936 169.258 71.6921C169.258 71.6907 169.258 71.6892 169.258 71.6877C169.258 71.6862 169.258 71.6848 169.258 71.6833C169.258 71.6818 169.258 71.6803 169.258 71.6789C169.258 71.6774 169.258 71.6759 169.258 71.6744C169.258 71.6729 169.258 71.6715 169.258 71.67C169.258 71.6685 169.258 71.667 169.258 71.6655C169.258 71.664 169.258 71.6626 169.258 71.6611C169.258 71.6596 169.258 71.6581 169.258 71.6566C169.258 71.6551 169.258 71.6536 169.258 71.6521C169.258 71.6506 169.258 71.6491 169.258 71.6476C169.258 71.6462 169.258 71.6447 169.258 71.6432C169.258 71.6417 169.258 71.6402 169.258 71.6387C169.258 71.6372 169.258 71.6357 169.258 71.6342C169.258 71.6327 169.258 71.6312 169.258 71.6297C169.258 71.6282 169.258 71.6267 169.258 71.6251C169.258 71.6236 169.258 71.6221 169.258 71.6206C169.258 71.6191 169.258 71.6176 169.258 71.6161C169.258 71.6146 169.258 71.6131 169.258 71.6116C169.258 71.6101 169.258 71.6085 169.258 71.607C169.258 71.6055 169.258 71.604 169.258 71.6025C169.258 71.601 169.258 71.5994 169.258 71.5979C169.258 71.5964 169.258 71.5949 169.258 71.5934C169.258 71.5918 169.258 71.5903 169.258 71.5888C169.258 71.5873 169.258 71.5857 169.258 71.5842C169.258 71.5827 169.258 71.5812 169.258 71.5796C169.258 71.5781 169.258 71.5766 169.258 71.575C169.258 71.5735 169.258 71.572 169.258 71.5704C169.258 71.5689 169.258 71.5674 169.258 71.5658C169.258 71.5643 169.258 71.5628 169.258 71.5612C169.258 71.5597 169.258 71.5582 169.258 71.5566C169.258 71.5551 169.258 71.5535 169.258 71.552C169.258 71.5504 169.258 71.5489 169.258 71.5474C169.258 71.5458 169.258 71.5443 169.258 71.5427C169.258 71.5412 169.258 71.5396 169.258 71.5381C169.258 71.5365 169.258 71.535 169.258 71.5334C169.258 71.5319 169.258 71.5303 169.258 71.5288C169.258 71.5272 169.258 71.5257 169.258 71.5241C169.258 71.5225 169.258 71.521 169.258 71.5194C169.258 71.5179 169.258 71.5163 169.258 71.5148C169.258 71.5132 169.258 71.5116 169.258 71.5101C169.258 71.5085 169.258 71.5069 169.258 71.5054C169.258 71.5038 169.258 71.5022 169.258 71.5007C169.258 71.4991 169.258 71.4975 169.258 71.496C169.258 71.4944 169.258 71.4928 169.258 71.4913C169.258 71.4897 169.258 71.4881 169.258 71.4865C169.258 71.485 169.258 71.4834 169.258 71.4818C169.258 71.4802 169.258 71.4787 169.258 71.4771C169.258 71.4755 169.258 71.4739 169.258 71.4723C169.258 71.4708 169.258 71.4692 169.258 71.4676C169.258 71.466 169.258 71.4644 169.258 71.4628C169.258 71.4612 169.258 71.4597 169.258 71.4581C169.258 71.4565 169.258 71.4549 169.258 71.4533C169.258 71.4517 169.258 71.4501 169.258 71.4485C169.258 71.4469 169.258 71.4453 169.258 71.4437C169.258 71.4422 169.258 71.4406 169.258 71.439C169.258 71.4374 169.258 71.4358 169.258 71.4342C169.258 71.4326 169.258 71.431 169.258 71.4294C169.258 71.4278 169.258 71.4262 169.258 71.4246C169.258 71.423 169.258 71.4213 169.258 71.4197C169.258 71.4181 169.258 71.4165 169.258 71.4149C169.258 71.4133 169.258 71.4117 169.258 71.4101C169.258 71.4085 169.258 71.4069 169.258 71.4052C169.258 71.4036 169.258 71.402 169.258 71.4004C169.258 71.3988 169.258 71.3972 169.258 71.3956C169.258 71.3939 169.258 71.3923 169.258 71.3907C169.258 71.3891 169.258 71.3875 169.258 71.3858C169.258 71.3842 169.258 71.3826 169.258 71.381C169.258 71.3793 169.258 71.3777 169.258 71.3761C169.258 71.3745 169.258 71.3728 169.258 71.3712C169.258 71.3696 169.258 71.3679 169.258 71.3663C169.258 71.3647 169.258 71.363 169.258 71.3614C169.258 71.3598 169.258 71.3581 169.258 71.3565C169.258 71.3549 169.258 71.3532 169.258 71.3516C169.258 71.35 169.258 71.3483 169.258 71.3467C169.258 71.345 169.258 71.3434 169.258 71.3417C169.258 71.3401 169.258 71.3385 169.258 71.3368C169.258 71.3352 169.258 71.3335 169.258 71.3319C169.258 71.3302 169.258 71.3286 169.258 71.3269C169.258 71.3253 169.258 71.3236 169.258 71.322C169.258 71.3203 169.258 71.3187 169.258 71.317C169.258 71.3154 169.258 71.3137 169.258 71.312C169.258 71.3104 169.258 71.3087 169.258 71.3071C169.258 71.3054 169.258 71.3038 169.258 71.3021C169.258 71.3004 169.258 71.2988 169.258 71.2971C169.258 71.2954 169.258 71.2938 169.258 71.2921C169.258 71.2904 169.258 71.2888 169.258 71.2871C169.258 71.2854 169.258 71.2838 169.258 71.2821C169.258 71.2804 169.258 71.2788 169.258 71.2771C169.258 71.2754 169.258 71.2737 169.258 71.2721C169.258 71.2704 169.258 71.2687 169.258 71.267C169.258 71.2654 169.258 71.2637 169.258 71.262C169.258 71.2603 169.258 71.2586 169.258 71.257C169.258 71.2553 169.258 71.2536 169.258 71.2519C169.258 71.2502 169.258 71.2485 169.258 71.2469C169.258 71.2452 169.258 71.2435 169.258 71.2418C169.258 71.2401 169.258 71.2384 169.258 71.2367C169.258 71.235 169.258 71.2333 169.258 71.2316C169.258 71.2299 169.258 71.2283 169.258 71.2266C169.258 71.2249 169.258 71.2232 169.258 71.2215C169.258 71.2198 169.258 71.2181 169.258 71.2164C169.258 71.2147 169.258 71.213 169.258 71.2113C169.258 71.2096 169.258 71.2079 169.258 71.2062C169.258 71.2044 169.258 71.2027 169.258 71.201C169.258 71.1993 169.258 71.1976 169.258 71.1959C169.258 71.1942 169.258 71.1925 169.258 71.1908C169.258 71.1891 169.258 71.1874 169.258 71.1856C169.258 71.1839 169.258 71.1822 169.258 71.1805C169.258 71.1788 169.258 71.1771 169.258 71.1753C169.258 71.1736 169.258 71.1719 169.258 71.1702C169.258 71.1685 169.258 71.1667 169.258 71.165C169.258 71.1633 169.258 71.1616 169.258 71.1598C169.258 71.1581 169.258 71.1564 169.258 71.1547C169.258 71.1529 169.258 71.1512 169.258 71.1495C169.258 71.1477 169.258 71.146 169.258 71.1443C169.258 71.1425 169.258 71.1408 169.258 71.1391C169.258 71.1373 169.258 71.1356 169.258 71.1339C169.258 71.1321 169.258 71.1304 169.258 71.1287C169.258 71.1269 169.258 71.1252 169.258 71.1234C169.258 71.1217 169.258 71.12 169.258 71.1182C169.258 71.1165 169.258 71.1147 169.258 71.113C169.258 71.1112 169.258 71.1095 169.258 71.1077C169.258 71.106 169.258 71.1042 169.258 71.1025C169.258 71.1007 169.258 71.099 169.258 71.0972C169.258 71.0955 169.258 71.0937 169.258 71.092C169.258 71.0902 169.258 71.0885 169.258 71.0867C169.258 71.0849 169.258 71.0832 169.258 71.0814C169.258 71.0797 169.258 71.0779 169.258 71.0761C169.258 71.0744 169.258 71.0726 169.258 71.0708C169.258 71.0691 169.258 71.0673 169.258 71.0656C169.258 71.0638 169.258 71.062 169.258 71.0602C169.258 71.0585 169.258 71.0567 169.258 71.0549C169.258 71.0532 169.258 71.0514 169.258 71.0496C169.258 71.0478 169.258 71.0461 169.258 71.0443C169.258 71.0425 169.258 71.0407 169.258 71.039C169.258 71.0372 169.258 71.0354 169.258 71.0336C169.258 71.0318 169.258 71.0301 169.258 71.0283C169.258 71.0265 169.258 71.0247 169.258 71.0229C169.258 71.0211 169.258 71.0194 169.258 71.0176C169.258 71.0158 169.258 71.014 169.258 71.0122C169.258 71.0104 169.258 71.0086 169.258 71.0068C169.258 71.005 169.258 71.0032 169.258 71.0015C169.258 70.9997 169.258 70.9979 169.258 70.9961C169.258 70.9943 169.258 70.9925 169.258 70.9907C169.258 70.9889 169.258 70.9871 169.258 70.9853C169.258 70.9835 169.258 70.9817 169.258 70.9799C169.258 70.9781 169.258 70.9763 169.258 70.9745C169.258 70.9727 169.258 70.9708 169.258 70.969C169.258 70.9672 169.258 70.9654 169.258 70.9636C169.258 70.9618 169.258 70.96 169.258 70.9582C169.258 70.9564 169.258 70.9545 169.258 70.9527C169.258 70.9509 169.258 70.9491 169.258 70.9473C169.258 70.9455 169.258 70.9437 169.258 70.9418C169.258 70.94 169.258 70.9382 169.258 70.9364C169.258 70.9345 169.258 70.9327 169.258 70.9309C169.258 70.9291 169.258 70.9273 169.258 70.9254C169.258 70.9236 169.258 70.9218 169.258 70.9199C169.258 70.9181 169.258 70.9163 169.258 70.9145C169.258 70.9126 169.258 70.9108 169.258 70.909C169.258 70.9071 169.258 70.9053 169.258 70.9035C169.258 70.9016 169.258 70.8998 169.258 70.8979C169.258 70.8961 169.258 70.8943 169.258 70.8924C169.258 70.8906 169.258 70.8888 169.258 70.8869C169.258 70.8851 169.258 70.8832 169.258 70.8814C169.258 70.8795 169.258 70.8777 169.258 70.8758C169.258 70.874 169.258 70.8721 169.258 70.8703C169.258 70.8684 169.258 70.8666 169.258 70.8647C169.258 70.8629 169.258 70.861 169.258 70.8592C169.258 70.8573 169.258 70.8555 169.258 70.8536C169.258 70.8518 169.258 70.8499 169.258 70.8481C169.258 70.8462 169.258 70.8443 169.258 70.8425C169.258 70.8406 169.258 70.8388 169.258 70.8369C169.258 70.835 169.258 70.8332 169.258 70.8313C169.258 70.8294 169.258 70.8276 169.258 70.8257C169.258 70.8238 169.258 70.822 169.258 70.8201C169.258 70.8182 169.258 70.8164 169.258 70.8145C169.258 70.8126 169.258 70.8107 169.258 70.8089C169.258 70.807 169.258 70.8051 169.258 70.8032C169.258 70.8014 169.258 70.7995 169.258 70.7976C169.258 70.7957 169.258 70.7938 169.258 70.792C169.258 70.7901 169.258 70.7882 169.258 70.7863C169.258 70.7844 169.258 70.7825 169.258 70.7807C169.258 70.7788 169.258 70.7769 169.258 70.775C169.258 70.7731 169.258 70.7712 169.258 70.7693C169.258 70.7674 169.258 70.7656 169.258 70.7637C169.258 70.7618 169.258 70.7599 169.258 70.758C169.258 70.7561 169.258 70.7542 169.258 70.7523C169.258 70.7504 169.258 70.7485 169.258 70.7466C169.258 70.7447 169.258 70.7428 169.258 70.7409C169.258 70.739 169.258 70.7371 169.258 70.7352C169.258 70.7333 169.258 70.7314 169.258 70.7295C169.258 70.7276 169.258 70.7257 169.258 70.7237C169.258 70.7218 169.258 70.7199 169.258 70.718C169.258 70.7161 169.258 70.7142 169.258 70.7123C169.258 70.7104 169.258 70.7085 169.258 70.7065C169.258 70.7046 169.258 70.7027 169.258 70.7008C169.258 70.6989 169.258 70.697 169.258 70.695C169.258 70.6931 169.258 70.6912 169.258 70.6893C169.258 70.6873 169.258 70.6854 169.258 70.6835C169.258 70.6816 169.258 70.6796 169.258 70.6777C169.258 70.6758 169.258 70.6739 169.258 70.6719C169.258 70.67 169.258 70.6681 169.258 70.6661C169.258 70.6642 169.258 70.6623 169.258 70.6603C169.258 70.6584 169.258 70.6565 169.258 70.6545C169.258 70.6526 169.258 70.6507 169.258 70.6487C169.258 70.6468 169.258 70.6449 169.258 70.6429C169.258 70.641 169.258 70.639 169.258 70.6371C169.258 70.6351 169.258 70.6332 169.258 70.6313C169.258 70.6293 169.258 70.6274 169.258 70.6254C169.258 70.6235 169.258 70.6215 169.258 70.6196C169.258 70.6176 169.258 70.6157 169.258 70.6137C169.258 70.6118 169.258 70.6098 169.258 70.6079C169.258 70.6059 169.258 70.6039 169.258 70.602C169.258 70.6 169.258 70.5981 169.258 70.5961C169.258 70.5942 169.258 70.5922 169.258 70.5902C169.258 70.5883 169.258 70.5863 169.258 70.5843C169.258 70.5824 169.258 70.5804 169.258 70.5785C169.258 70.5765 169.258 70.5745 169.258 70.5726C169.258 70.5706 169.258 70.5686 169.258 70.5666C169.258 70.5647 169.258 70.5627 169.258 70.5607C169.258 70.5588 169.258 70.5568 169.258 70.5548C169.258 70.5528 169.258 70.5509 169.258 70.5489C169.258 70.5469 169.258 70.5449 169.258 70.5429C169.258 70.541 169.258 70.539 169.258 70.537C169.258 70.535 169.258 70.533 169.258 70.5311C169.258 70.5291 169.258 70.5271 169.258 70.5251C169.258 70.5231 169.258 70.5211 169.258 70.5191C169.258 70.5171 169.258 70.5152 169.258 70.5132C169.258 70.5112 169.258 70.5092 169.258 70.5072C169.258 70.5052 169.258 70.5032 169.258 70.5012C169.258 70.4992 169.258 70.4972 169.258 70.4952C169.258 70.4932 169.258 70.4912 169.258 70.4892C169.258 70.4872 169.258 70.4852 169.258 70.4832C169.258 70.4812 169.258 70.4792 169.258 70.4772C169.258 70.4752 169.258 70.4732 169.258 70.4712C169.258 70.4692 169.258 70.4672 169.258 70.4652C169.258 70.4632 169.258 70.4611 169.258 70.4591C169.258 70.4571 169.258 70.4551 169.258 70.4531C169.258 70.4511 169.258 70.4491 169.258 70.447C169.258 70.445 169.258 70.443 169.258 70.441C169.258 70.439 169.258 70.437 169.258 70.4349C169.258 70.4329 169.258 70.4309 169.258 70.4289C169.258 70.4268 169.258 70.4248 169.258 70.4228C169.258 70.4208 169.258 70.4187 169.258 70.4167C169.258 70.4147 169.258 70.4127 169.258 70.4106C169.258 70.4086 169.258 70.4066 169.258 70.4045C169.258 70.4025 169.258 70.4005 169.258 70.3984C169.258 70.3964 169.258 70.3944 169.258 70.3923C169.258 70.3903 169.258 70.3883 169.258 70.3862C169.258 70.3842 169.258 70.3821 169.258 70.3801C169.258 70.3781 169.258 70.376 169.258 70.374C169.258 70.3719 169.258 70.3699 169.258 70.3678C169.258 70.3658 169.258 70.3637 169.258 70.3617C169.258 70.3596 169.258 70.3576 169.258 70.3555C169.258 70.3535 169.258 70.3514 169.258 70.3494C169.258 70.3473 169.258 70.3453 169.258 70.3432C169.258 70.3412 169.258 70.3391 169.258 70.3371C169.258 70.335 169.258 70.3329 169.258 70.3309C169.258 70.3288 169.258 70.3268 169.258 70.3247C169.258 70.3226 169.258 70.3206 169.258 70.3185C169.258 70.3164 169.258 70.3144 169.258 70.3123C169.258 70.3102 169.258 70.3082 169.258 70.3061C169.258 70.304 169.258 70.302 169.258 70.2999C169.258 70.2978 169.258 70.2958 169.258 70.2937C169.258 70.2916 169.258 70.2895 169.258 70.2875C169.258 70.2854 169.258 70.2833 169.258 70.2812C169.258 70.2792 169.258 70.2771 169.258 70.275C169.258 70.2729 169.258 70.2708 169.258 70.2687C169.258 70.2667 169.258 70.2646 169.258 70.2625C169.258 70.2604 169.258 70.2583 169.258 70.2562C169.258 70.2542 169.258 70.2521 169.258 70.25C169.258 70.2479 169.258 70.2458 169.258 70.2437C169.258 70.2416 169.258 70.2395 169.258 70.2374C169.258 70.2353 169.258 70.2332 169.258 70.2311C169.258 70.229 169.258 70.2269 169.258 70.2248C169.258 70.2227 169.258 70.2206 169.258 70.2185C169.258 70.2164 169.258 70.2143 169.258 70.2122C169.258 70.2101 169.258 70.208 169.258 70.2059C169.258 70.2038 169.258 70.2017 169.258 70.1996C169.258 70.1975 169.258 70.1954 169.258 70.1933C169.258 70.1912 169.258 70.1891 169.258 70.1869C169.258 70.1848 169.258 70.1827 169.258 70.1806C169.258 70.1785 169.258 70.1764 169.258 70.1743C169.258 70.1721 169.258 70.17 169.258 70.1679C169.258 70.1658 169.258 70.1637 169.258 70.1615C169.258 70.1594 169.258 70.1573 169.258 70.1552C169.258 70.1531 169.258 70.1509 169.258 70.1488C169.258 70.1467 169.258 70.1446 169.258 70.1424C169.258 70.1403 169.258 70.1382 169.258 70.136C169.258 70.1339 169.258 70.1318 169.258 70.1296C169.258 70.1275 169.258 70.1254 169.258 70.1232C169.258 70.1211 169.258 70.119 169.258 70.1168C169.258 70.1147 169.258 70.1126 169.258 70.1104C169.258 70.1083 169.258 70.1061 169.258 70.104C169.258 70.1018 169.258 70.0997 169.258 70.0976C169.258 70.0954 169.258 70.0933 169.258 70.0911C169.258 70.089 169.258 70.0868 169.258 70.0847C169.258 70.0825 169.258 70.0804 169.258 70.0782C169.258 70.0761 169.258 70.0739 169.258 70.0718C169.258 70.0696 169.258 70.0675 169.258 70.0653C169.258 70.0632 169.258 70.061 169.258 70.0588C169.258 70.0567 169.258 70.0545 169.258 70.0524C169.258 70.0502 169.258 70.048 169.258 70.0459C169.258 70.0437 169.258 70.0415 169.258 70.0394C169.258 70.0372 169.258 70.0351 169.258 70.0329C169.258 70.0307 169.258 70.0285 169.258 70.0264C169.258 70.0242 169.258 70.022 169.258 70.0199C169.258 70.0177 169.258 70.0155 169.258 70.0133C169.258 70.0112 169.258 70.009 169.258 70.0068C169.258 70.0046 169.258 70.0025 169.258 70.0003C169.258 69.9981 169.258 69.9959 169.258 69.9937C169.258 69.9916 169.258 69.9894 169.258 69.9872C169.258 69.985 169.258 69.9828 169.258 69.9807C169.258 69.9785 169.258 69.9763 169.258 69.9741C169.258 69.9719 169.258 69.9697 169.258 69.9675C169.258 69.9653 169.258 69.9631 169.258 69.9609C169.258 69.9588 169.258 69.9566 169.258 69.9544C169.258 69.9522 169.258 69.95 169.258 69.9478C169.258 69.9456 169.258 69.9434 169.258 69.9412C169.258 69.939 169.258 69.9368 169.258 69.9346C169.258 69.9324 169.258 69.9302 169.258 69.928C169.258 69.9258 169.258 69.9236 169.258 69.9214C169.258 69.9192 169.258 69.9169 169.258 69.9147C169.258 69.9125 169.258 69.9103 169.258 69.9081C169.258 69.9059 169.258 69.9037 169.258 69.9015C169.258 69.8993 169.258 69.897 169.258 69.8948C169.258 69.8926 169.258 69.8904 169.258 69.8882C169.258 69.886 169.258 69.8837 169.258 69.8815C169.258 69.8793 169.258 69.8771 169.258 69.8749C169.258 69.8726 169.258 69.8704 169.258 69.8682C169.258 69.866 169.258 69.8637 169.258 69.8615C169.258 69.8593 169.258 69.8571 169.258 69.8548C169.258 69.8526 169.258 69.8504 169.258 69.8481C169.258 69.8459 169.258 69.8437 169.258 69.8414C169.258 69.8392 169.258 69.837 169.258 69.8347C169.258 69.8325 169.258 69.8303 169.258 69.828C169.258 69.8258 169.258 69.8236 169.258 69.8213C169.258 69.8191 169.258 69.8168 169.258 69.8146C169.258 69.8123 169.258 69.8101 169.258 69.8079C169.258 69.8056 169.258 69.8034 169.258 69.8011C169.258 69.7989 169.258 69.7966 169.258 69.7944C169.258 69.7921 169.258 69.7899 169.258 69.7876C169.258 69.7854 169.258 69.7831 169.258 69.7809C169.258 69.7786 169.258 69.7763 169.258 69.7741C169.258 69.7718 169.258 69.7696 169.258 69.7673C169.258 69.7651 169.258 69.7628 169.258 69.7605C169.258 69.7583 169.258 69.756 169.258 69.7538C169.258 69.7515 169.258 69.7492 169.258 69.747C169.258 69.7447 169.258 69.7424 169.258 69.7402C169.258 69.7379 169.258 69.7356 169.258 69.7334C169.258 69.7311 169.258 69.7288 169.258 69.7265C169.258 69.7243 169.258 69.722 169.258 69.7197C169.258 69.7174 169.258 69.7152 169.258 69.7129C169.258 69.7106 169.258 69.7083 169.258 69.7061C169.258 69.7038 169.258 69.7015 169.258 69.6992C169.258 69.6969 169.258 69.6946 169.258 69.6924C169.258 69.6901 169.258 69.6878 169.258 69.6855C169.258 69.6832 169.258 69.6809 169.258 69.6786C169.258 69.6764 169.258 69.6741 169.258 69.6718C169.258 69.6695 169.258 69.6672 169.258 69.6649C169.258 69.6626 169.258 69.6603 169.258 69.658C169.258 69.6557 169.258 69.6534 169.258 69.6511C169.258 69.6488 169.258 69.6465 169.258 69.6442C169.258 69.6419 169.258 69.6396 169.258 69.6373C169.258 69.635 169.258 69.6327 169.258 69.6304C169.258 69.6281 169.258 69.6258 169.258 69.6235C169.258 69.6212 169.258 69.6189 169.258 69.6166C169.258 69.6143 169.258 69.612 169.258 69.6096C169.258 69.6073 169.258 69.605 169.258 69.6027C169.258 69.6004 169.258 69.5981 169.258 69.5958C169.258 69.5934 169.258 69.5911 169.258 69.5888C169.258 69.5865 169.258 69.5842 169.258 69.5819C169.258 69.5795 169.258 69.5772 169.258 69.5749C169.258 69.5726 169.258 69.5702 169.258 69.5679C169.258 69.5656 169.258 69.5633 169.258 69.5609C169.258 69.5586 169.258 69.5563 169.258 69.554C169.258 69.5516 169.258 69.5493 169.258 69.547C169.258 69.5446 169.258 69.5423 169.258 69.54C169.258 69.5376 169.258 69.5353 169.258 69.533C169.258 69.5306 169.258 69.5283 169.258 69.5259C169.258 69.5236 169.258 69.5213 169.258 69.5189C169.258 69.5166 169.258 69.5142 169.258 69.5119C169.258 69.5095 169.258 69.5072 169.258 69.5049C169.258 69.5025 169.258 69.5002 169.258 69.4978C169.258 69.4955 169.258 69.4931 169.258 69.4908C169.258 69.4884 169.258 69.4861 169.258 69.4837C169.258 69.4814 169.258 69.479 169.258 69.4767C169.258 69.4743 169.258 69.4719 169.258 69.4696C169.258 69.4672 169.258 69.4649 169.258 69.4625C169.258 69.4602 169.258 69.4578 169.258 69.4554C169.258 69.4531 169.258 69.4507 169.258 69.4483C169.258 69.446 169.258 69.4436 169.258 69.4412C169.258 69.4389 169.258 69.4365 169.258 69.4341C169.258 69.4318 169.258 69.4294 169.258 69.427C169.258 69.4247 169.258 69.4223 169.258 69.4199C169.258 69.4175 169.258 69.4152 169.258 69.4128C169.258 69.4104 169.258 69.408 169.258 69.4057C169.258 69.4033 169.258 69.4009 169.258 69.3985C169.258 69.3961 169.258 69.3938 169.258 69.3914C169.258 69.389 169.258 69.3866 169.258 69.3842C169.258 69.3818 169.258 69.3795 169.258 69.3771C169.258 69.3747 169.258 69.3723 169.258 69.3699C169.258 69.3675 169.258 69.3651 169.258 69.3627C169.258 69.3603 169.258 69.358 169.258 69.3556C169.258 69.3532 169.258 69.3508 169.258 69.3484C169.258 69.346 169.258 69.3436 169.258 69.3412C169.258 69.3388 169.258 69.3364 169.258 69.334C169.258 69.3316 169.258 69.3292 169.258 69.3268C169.258 69.3244 169.258 69.322 169.258 69.3196C169.258 69.3172 169.258 69.3148 169.258 69.3123C169.258 69.3099 169.258 69.3075 169.258 69.3051C169.258 69.3027 169.258 69.3003 169.258 69.2979C169.258 69.2955 169.258 69.2931 169.258 69.2906C169.258 69.2882 169.258 69.2858 169.258 69.2834C169.258 69.281 169.258 69.2786 169.258 69.2761C169.258 69.2737 169.258 69.2713 169.258 69.2689C169.258 69.2665 169.258 69.264 169.258 69.2616C169.258 69.2592 169.258 69.2568 169.258 69.2543C169.258 69.2519 169.258 69.2495 169.258 69.2471C169.258 69.2446 169.258 69.2422 169.258 69.2398C169.258 69.2373 169.258 69.2349 169.258 69.2325C169.258 69.23 169.258 69.2276 169.258 69.2252C169.258 69.2227 169.258 69.2203 169.258 69.2179C169.258 69.2154 169.258 69.213 169.258 69.2106C169.258 69.2081 169.258 69.2057 169.258 69.2032C169.258 69.2008 169.258 69.1983 169.258 69.1959C169.258 69.1935 169.258 69.191 169.258 69.1886C169.258 69.1861 169.258 69.1837 169.258 69.1812C169.258 69.1788 169.258 69.1763 169.258 69.1739C169.258 69.1714 169.258 69.169 169.258 69.1665C169.258 69.1641 169.258 69.1616 169.258 69.1592C169.258 69.1567 169.258 69.1542 169.258 69.1518C169.258 69.1493 169.258 69.1469 169.258 69.1444C169.258 69.1419 169.258 69.1395 169.258 69.137C169.258 69.1346 169.258 69.1321 169.258 69.1296C169.258 69.1272 169.258 69.1247 169.258 69.1222C169.258 69.1198 169.258 69.1173 169.258 69.1148C169.258 69.1124 169.258 69.1099 169.258 69.1074C169.258 69.1049 169.258 69.1025 169.258 69.1H167.258C167.258 69.1025 167.258 69.1049 167.258 69.1074C167.258 69.1099 167.258 69.1124 167.258 69.1148C167.258 69.1173 167.258 69.1198 167.258 69.1222C167.258 69.1247 167.258 69.1272 167.258 69.1296C167.258 69.1321 167.258 69.1346 167.258 69.137C167.258 69.1395 167.258 69.1419 167.258 69.1444C167.258 69.1469 167.258 69.1493 167.258 69.1518C167.258 69.1542 167.258 69.1567 167.258 69.1592C167.258 69.1616 167.258 69.1641 167.258 69.1665C167.258 69.169 167.258 69.1714 167.258 69.1739C167.258 69.1763 167.258 69.1788 167.258 69.1812C167.258 69.1837 167.258 69.1861 167.258 69.1886C167.258 69.191 167.258 69.1935 167.258 69.1959C167.258 69.1983 167.258 69.2008 167.258 69.2032C167.258 69.2057 167.258 69.2081 167.258 69.2106C167.258 69.213 167.258 69.2154 167.258 69.2179C167.258 69.2203 167.258 69.2227 167.258 69.2252C167.258 69.2276 167.258 69.23 167.258 69.2325C167.258 69.2349 167.258 69.2373 167.258 69.2398C167.258 69.2422 167.258 69.2446 167.258 69.2471C167.258 69.2495 167.258 69.2519 167.258 69.2543C167.258 69.2568 167.258 69.2592 167.258 69.2616C167.258 69.264 167.258 69.2665 167.258 69.2689C167.258 69.2713 167.258 69.2737 167.258 69.2761C167.258 69.2786 167.258 69.281 167.258 69.2834C167.258 69.2858 167.258 69.2882 167.258 69.2906C167.258 69.2931 167.258 69.2955 167.258 69.2979C167.258 69.3003 167.258 69.3027 167.258 69.3051C167.258 69.3075 167.258 69.3099 167.258 69.3123C167.258 69.3148 167.258 69.3172 167.258 69.3196C167.258 69.322 167.258 69.3244 167.258 69.3268C167.258 69.3292 167.258 69.3316 167.258 69.334C167.258 69.3364 167.258 69.3388 167.258 69.3412C167.258 69.3436 167.258 69.346 167.258 69.3484C167.258 69.3508 167.258 69.3532 167.258 69.3556C167.258 69.358 167.258 69.3603 167.258 69.3627C167.258 69.3651 167.258 69.3675 167.258 69.3699C167.258 69.3723 167.258 69.3747 167.258 69.3771C167.258 69.3795 167.258 69.3818 167.258 69.3842C167.258 69.3866 167.258 69.389 167.258 69.3914C167.258 69.3938 167.258 69.3961 167.258 69.3985C167.258 69.4009 167.258 69.4033 167.258 69.4057C167.258 69.408 167.258 69.4104 167.258 69.4128C167.258 69.4152 167.258 69.4175 167.258 69.4199C167.258 69.4223 167.258 69.4247 167.258 69.427C167.258 69.4294 167.258 69.4318 167.258 69.4341C167.258 69.4365 167.258 69.4389 167.258 69.4412C167.258 69.4436 167.258 69.446 167.258 69.4483C167.258 69.4507 167.258 69.4531 167.258 69.4554C167.258 69.4578 167.258 69.4602 167.258 69.4625C167.258 69.4649 167.258 69.4672 167.258 69.4696C167.258 69.4719 167.258 69.4743 167.258 69.4767C167.258 69.479 167.258 69.4814 167.258 69.4837C167.258 69.4861 167.258 69.4884 167.258 69.4908C167.258 69.4931 167.258 69.4955 167.258 69.4978C167.258 69.5002 167.258 69.5025 167.258 69.5049C167.258 69.5072 167.258 69.5095 167.258 69.5119C167.258 69.5142 167.258 69.5166 167.258 69.5189C167.258 69.5213 167.258 69.5236 167.258 69.5259C167.258 69.5283 167.258 69.5306 167.258 69.533C167.258 69.5353 167.258 69.5376 167.258 69.54C167.258 69.5423 167.258 69.5446 167.258 69.547C167.258 69.5493 167.258 69.5516 167.258 69.554C167.258 69.5563 167.258 69.5586 167.258 69.5609C167.258 69.5633 167.258 69.5656 167.258 69.5679C167.258 69.5702 167.258 69.5726 167.258 69.5749C167.258 69.5772 167.258 69.5795 167.258 69.5819C167.258 69.5842 167.258 69.5865 167.258 69.5888C167.258 69.5911 167.258 69.5934 167.258 69.5958C167.258 69.5981 167.258 69.6004 167.258 69.6027C167.258 69.605 167.258 69.6073 167.258 69.6096C167.258 69.612 167.258 69.6143 167.258 69.6166C167.258 69.6189 167.258 69.6212 167.258 69.6235C167.258 69.6258 167.258 69.6281 167.258 69.6304C167.258 69.6327 167.258 69.635 167.258 69.6373C167.258 69.6396 167.258 69.6419 167.258 69.6442C167.258 69.6465 167.258 69.6488 167.258 69.6511C167.258 69.6534 167.258 69.6557 167.258 69.658C167.258 69.6603 167.258 69.6626 167.258 69.6649C167.258 69.6672 167.258 69.6695 167.258 69.6718C167.258 69.6741 167.258 69.6764 167.258 69.6786C167.258 69.6809 167.258 69.6832 167.258 69.6855C167.258 69.6878 167.258 69.6901 167.258 69.6924C167.258 69.6946 167.258 69.6969 167.258 69.6992C167.258 69.7015 167.258 69.7038 167.258 69.7061C167.258 69.7083 167.258 69.7106 167.258 69.7129C167.258 69.7152 167.258 69.7174 167.258 69.7197C167.258 69.722 167.258 69.7243 167.258 69.7265C167.258 69.7288 167.258 69.7311 167.258 69.7334C167.258 69.7356 167.258 69.7379 167.258 69.7402C167.258 69.7424 167.258 69.7447 167.258 69.747C167.258 69.7492 167.258 69.7515 167.258 69.7538C167.258 69.756 167.258 69.7583 167.258 69.7605C167.258 69.7628 167.258 69.7651 167.258 69.7673C167.258 69.7696 167.258 69.7718 167.258 69.7741C167.258 69.7763 167.258 69.7786 167.258 69.7809C167.258 69.7831 167.258 69.7854 167.258 69.7876C167.258 69.7899 167.258 69.7921 167.258 69.7944C167.258 69.7966 167.258 69.7989 167.258 69.8011C167.258 69.8034 167.258 69.8056 167.258 69.8079C167.258 69.8101 167.258 69.8123 167.258 69.8146C167.258 69.8168 167.258 69.8191 167.258 69.8213C167.258 69.8236 167.258 69.8258 167.258 69.828C167.258 69.8303 167.258 69.8325 167.258 69.8347C167.258 69.837 167.258 69.8392 167.258 69.8414C167.258 69.8437 167.258 69.8459 167.258 69.8481C167.258 69.8504 167.258 69.8526 167.258 69.8548C167.258 69.8571 167.258 69.8593 167.258 69.8615C167.258 69.8637 167.258 69.866 167.258 69.8682C167.258 69.8704 167.258 69.8726 167.258 69.8749C167.258 69.8771 167.258 69.8793 167.258 69.8815C167.258 69.8837 167.258 69.886 167.258 69.8882C167.258 69.8904 167.258 69.8926 167.258 69.8948C167.258 69.897 167.258 69.8993 167.258 69.9015C167.258 69.9037 167.258 69.9059 167.258 69.9081C167.258 69.9103 167.258 69.9125 167.258 69.9147C167.258 69.9169 167.258 69.9192 167.258 69.9214C167.258 69.9236 167.258 69.9258 167.258 69.928C167.258 69.9302 167.258 69.9324 167.258 69.9346C167.258 69.9368 167.258 69.939 167.258 69.9412C167.258 69.9434 167.258 69.9456 167.258 69.9478C167.258 69.95 167.258 69.9522 167.258 69.9544C167.258 69.9566 167.258 69.9588 167.258 69.9609C167.258 69.9631 167.258 69.9653 167.258 69.9675C167.258 69.9697 167.258 69.9719 167.258 69.9741C167.258 69.9763 167.258 69.9785 167.258 69.9807C167.258 69.9828 167.258 69.985 167.258 69.9872C167.258 69.9894 167.258 69.9916 167.258 69.9937C167.258 69.9959 167.258 69.9981 167.258 70.0003C167.258 70.0025 167.258 70.0046 167.258 70.0068C167.258 70.009 167.258 70.0112 167.258 70.0133C167.258 70.0155 167.258 70.0177 167.258 70.0199C167.258 70.022 167.258 70.0242 167.258 70.0264C167.258 70.0285 167.258 70.0307 167.258 70.0329C167.258 70.0351 167.258 70.0372 167.258 70.0394C167.258 70.0415 167.258 70.0437 167.258 70.0459C167.258 70.048 167.258 70.0502 167.258 70.0524C167.258 70.0545 167.258 70.0567 167.258 70.0588C167.258 70.061 167.258 70.0632 167.258 70.0653C167.258 70.0675 167.258 70.0696 167.258 70.0718C167.258 70.0739 167.258 70.0761 167.258 70.0782C167.258 70.0804 167.258 70.0825 167.258 70.0847C167.258 70.0868 167.258 70.089 167.258 70.0911C167.258 70.0933 167.258 70.0954 167.258 70.0976C167.258 70.0997 167.258 70.1018 167.258 70.104C167.258 70.1061 167.258 70.1083 167.258 70.1104C167.258 70.1126 167.258 70.1147 167.258 70.1168C167.258 70.119 167.258 70.1211 167.258 70.1232C167.258 70.1254 167.258 70.1275 167.258 70.1296C167.258 70.1318 167.258 70.1339 167.258 70.136C167.258 70.1382 167.258 70.1403 167.258 70.1424C167.258 70.1446 167.258 70.1467 167.258 70.1488C167.258 70.1509 167.258 70.1531 167.258 70.1552C167.258 70.1573 167.258 70.1594 167.258 70.1615C167.258 70.1637 167.258 70.1658 167.258 70.1679C167.258 70.17 167.258 70.1721 167.258 70.1743C167.258 70.1764 167.258 70.1785 167.258 70.1806C167.258 70.1827 167.258 70.1848 167.258 70.1869C167.258 70.1891 167.258 70.1912 167.258 70.1933C167.258 70.1954 167.258 70.1975 167.258 70.1996C167.258 70.2017 167.258 70.2038 167.258 70.2059C167.258 70.208 167.258 70.2101 167.258 70.2122C167.258 70.2143 167.258 70.2164 167.258 70.2185C167.258 70.2206 167.258 70.2227 167.258 70.2248C167.258 70.2269 167.258 70.229 167.258 70.2311C167.258 70.2332 167.258 70.2353 167.258 70.2374C167.258 70.2395 167.258 70.2416 167.258 70.2437C167.258 70.2458 167.258 70.2479 167.258 70.25C167.258 70.2521 167.258 70.2542 167.258 70.2562C167.258 70.2583 167.258 70.2604 167.258 70.2625C167.258 70.2646 167.258 70.2667 167.258 70.2687C167.258 70.2708 167.258 70.2729 167.258 70.275C167.258 70.2771 167.258 70.2792 167.258 70.2812C167.258 70.2833 167.258 70.2854 167.258 70.2875C167.258 70.2895 167.258 70.2916 167.258 70.2937C167.258 70.2958 167.258 70.2978 167.258 70.2999C167.258 70.302 167.258 70.304 167.258 70.3061C167.258 70.3082 167.258 70.3102 167.258 70.3123C167.258 70.3144 167.258 70.3164 167.258 70.3185C167.258 70.3206 167.258 70.3226 167.258 70.3247C167.258 70.3268 167.258 70.3288 167.258 70.3309C167.258 70.3329 167.258 70.335 167.258 70.3371C167.258 70.3391 167.258 70.3412 167.258 70.3432C167.258 70.3453 167.258 70.3473 167.258 70.3494C167.258 70.3514 167.258 70.3535 167.258 70.3555C167.258 70.3576 167.258 70.3596 167.258 70.3617C167.258 70.3637 167.258 70.3658 167.258 70.3678C167.258 70.3699 167.258 70.3719 167.258 70.374C167.258 70.376 167.258 70.3781 167.258 70.3801C167.258 70.3821 167.258 70.3842 167.258 70.3862C167.258 70.3883 167.258 70.3903 167.258 70.3923C167.258 70.3944 167.258 70.3964 167.258 70.3984C167.258 70.4005 167.258 70.4025 167.258 70.4045C167.258 70.4066 167.258 70.4086 167.258 70.4106C167.258 70.4127 167.258 70.4147 167.258 70.4167C167.258 70.4187 167.258 70.4208 167.258 70.4228C167.258 70.4248 167.258 70.4268 167.258 70.4289C167.258 70.4309 167.258 70.4329 167.258 70.4349C167.258 70.437 167.258 70.439 167.258 70.441C167.258 70.443 167.258 70.445 167.258 70.447C167.258 70.4491 167.258 70.4511 167.258 70.4531C167.258 70.4551 167.258 70.4571 167.258 70.4591C167.258 70.4611 167.258 70.4632 167.258 70.4652C167.258 70.4672 167.258 70.4692 167.258 70.4712C167.258 70.4732 167.258 70.4752 167.258 70.4772C167.258 70.4792 167.258 70.4812 167.258 70.4832C167.258 70.4852 167.258 70.4872 167.258 70.4892C167.258 70.4912 167.258 70.4932 167.258 70.4952C167.258 70.4972 167.258 70.4992 167.258 70.5012C167.258 70.5032 167.258 70.5052 167.258 70.5072C167.258 70.5092 167.258 70.5112 167.258 70.5132C167.258 70.5152 167.258 70.5171 167.258 70.5191C167.258 70.5211 167.258 70.5231 167.258 70.5251C167.258 70.5271 167.258 70.5291 167.258 70.5311C167.258 70.533 167.258 70.535 167.258 70.537C167.258 70.539 167.258 70.541 167.258 70.5429C167.258 70.5449 167.258 70.5469 167.258 70.5489C167.258 70.5509 167.258 70.5528 167.258 70.5548C167.258 70.5568 167.258 70.5588 167.258 70.5607C167.258 70.5627 167.258 70.5647 167.258 70.5666C167.258 70.5686 167.258 70.5706 167.258 70.5726C167.258 70.5745 167.258 70.5765 167.258 70.5785C167.258 70.5804 167.258 70.5824 167.258 70.5843C167.258 70.5863 167.258 70.5883 167.258 70.5902C167.258 70.5922 167.258 70.5942 167.258 70.5961C167.258 70.5981 167.258 70.6 167.258 70.602C167.258 70.6039 167.258 70.6059 167.258 70.6079C167.258 70.6098 167.258 70.6118 167.258 70.6137C167.258 70.6157 167.258 70.6176 167.258 70.6196C167.258 70.6215 167.258 70.6235 167.258 70.6254C167.258 70.6274 167.258 70.6293 167.258 70.6313C167.258 70.6332 167.258 70.6351 167.258 70.6371C167.258 70.639 167.258 70.641 167.258 70.6429C167.258 70.6449 167.258 70.6468 167.258 70.6487C167.258 70.6507 167.258 70.6526 167.258 70.6545C167.258 70.6565 167.258 70.6584 167.258 70.6603C167.258 70.6623 167.258 70.6642 167.258 70.6661C167.258 70.6681 167.258 70.67 167.258 70.6719C167.258 70.6739 167.258 70.6758 167.258 70.6777C167.258 70.6796 167.258 70.6816 167.258 70.6835C167.258 70.6854 167.258 70.6873 167.258 70.6893C167.258 70.6912 167.258 70.6931 167.258 70.695C167.258 70.697 167.258 70.6989 167.258 70.7008C167.258 70.7027 167.258 70.7046 167.258 70.7065C167.258 70.7085 167.258 70.7104 167.258 70.7123C167.258 70.7142 167.258 70.7161 167.258 70.718C167.258 70.7199 167.258 70.7218 167.258 70.7237C167.258 70.7257 167.258 70.7276 167.258 70.7295C167.258 70.7314 167.258 70.7333 167.258 70.7352C167.258 70.7371 167.258 70.739 167.258 70.7409C167.258 70.7428 167.258 70.7447 167.258 70.7466C167.258 70.7485 167.258 70.7504 167.258 70.7523C167.258 70.7542 167.258 70.7561 167.258 70.758C167.258 70.7599 167.258 70.7618 167.258 70.7637C167.258 70.7656 167.258 70.7674 167.258 70.7693C167.258 70.7712 167.258 70.7731 167.258 70.775C167.258 70.7769 167.258 70.7788 167.258 70.7807C167.258 70.7825 167.258 70.7844 167.258 70.7863C167.258 70.7882 167.258 70.7901 167.258 70.792C167.258 70.7938 167.258 70.7957 167.258 70.7976C167.258 70.7995 167.258 70.8014 167.258 70.8032C167.258 70.8051 167.258 70.807 167.258 70.8089C167.258 70.8107 167.258 70.8126 167.258 70.8145C167.258 70.8164 167.258 70.8182 167.258 70.8201C167.258 70.822 167.258 70.8238 167.258 70.8257C167.258 70.8276 167.258 70.8294 167.258 70.8313C167.258 70.8332 167.258 70.835 167.258 70.8369C167.258 70.8388 167.258 70.8406 167.258 70.8425C167.258 70.8443 167.258 70.8462 167.258 70.8481C167.258 70.8499 167.258 70.8518 167.258 70.8536C167.258 70.8555 167.258 70.8573 167.258 70.8592C167.258 70.861 167.258 70.8629 167.258 70.8647C167.258 70.8666 167.258 70.8684 167.258 70.8703C167.258 70.8721 167.258 70.874 167.258 70.8758C167.258 70.8777 167.258 70.8795 167.258 70.8814C167.258 70.8832 167.258 70.8851 167.258 70.8869C167.258 70.8888 167.258 70.8906 167.258 70.8924C167.258 70.8943 167.258 70.8961 167.258 70.8979C167.258 70.8998 167.258 70.9016 167.258 70.9035C167.258 70.9053 167.258 70.9071 167.258 70.909C167.258 70.9108 167.258 70.9126 167.258 70.9145C167.258 70.9163 167.258 70.9181 167.258 70.9199C167.258 70.9218 167.258 70.9236 167.258 70.9254C167.258 70.9273 167.258 70.9291 167.258 70.9309C167.258 70.9327 167.258 70.9345 167.258 70.9364C167.258 70.9382 167.258 70.94 167.258 70.9418C167.258 70.9437 167.258 70.9455 167.258 70.9473C167.258 70.9491 167.258 70.9509 167.258 70.9527C167.258 70.9545 167.258 70.9564 167.258 70.9582C167.258 70.96 167.258 70.9618 167.258 70.9636C167.258 70.9654 167.258 70.9672 167.258 70.969C167.258 70.9708 167.258 70.9727 167.258 70.9745C167.258 70.9763 167.258 70.9781 167.258 70.9799C167.258 70.9817 167.258 70.9835 167.258 70.9853C167.258 70.9871 167.258 70.9889 167.258 70.9907C167.258 70.9925 167.258 70.9943 167.258 70.9961C167.258 70.9979 167.258 70.9997 167.258 71.0015C167.258 71.0032 167.258 71.005 167.258 71.0068C167.258 71.0086 167.258 71.0104 167.258 71.0122C167.258 71.014 167.258 71.0158 167.258 71.0176C167.258 71.0194 167.258 71.0211 167.258 71.0229C167.258 71.0247 167.258 71.0265 167.258 71.0283C167.258 71.0301 167.258 71.0318 167.258 71.0336C167.258 71.0354 167.258 71.0372 167.258 71.039C167.258 71.0407 167.258 71.0425 167.258 71.0443C167.258 71.0461 167.258 71.0478 167.258 71.0496C167.258 71.0514 167.258 71.0532 167.258 71.0549C167.258 71.0567 167.258 71.0585 167.258 71.0602C167.258 71.062 167.258 71.0638 167.258 71.0656C167.258 71.0673 167.258 71.0691 167.258 71.0708C167.258 71.0726 167.258 71.0744 167.258 71.0761C167.258 71.0779 167.258 71.0797 167.258 71.0814C167.258 71.0832 167.258 71.0849 167.258 71.0867C167.258 71.0885 167.258 71.0902 167.258 71.092C167.258 71.0937 167.258 71.0955 167.258 71.0972C167.258 71.099 167.258 71.1007 167.258 71.1025C167.258 71.1042 167.258 71.106 167.258 71.1077C167.258 71.1095 167.258 71.1112 167.258 71.113C167.258 71.1147 167.258 71.1165 167.258 71.1182C167.258 71.12 167.258 71.1217 167.258 71.1234C167.258 71.1252 167.258 71.1269 167.258 71.1287C167.258 71.1304 167.258 71.1321 167.258 71.1339C167.258 71.1356 167.258 71.1373 167.258 71.1391C167.258 71.1408 167.258 71.1425 167.258 71.1443C167.258 71.146 167.258 71.1477 167.258 71.1495C167.258 71.1512 167.258 71.1529 167.258 71.1547C167.258 71.1564 167.258 71.1581 167.258 71.1598C167.258 71.1616 167.258 71.1633 167.258 71.165C167.258 71.1667 167.258 71.1685 167.258 71.1702C167.258 71.1719 167.258 71.1736 167.258 71.1753C167.258 71.1771 167.258 71.1788 167.258 71.1805C167.258 71.1822 167.258 71.1839 167.258 71.1856C167.258 71.1874 167.258 71.1891 167.258 71.1908C167.258 71.1925 167.258 71.1942 167.258 71.1959C167.258 71.1976 167.258 71.1993 167.258 71.201C167.258 71.2027 167.258 71.2044 167.258 71.2062C167.258 71.2079 167.258 71.2096 167.258 71.2113C167.258 71.213 167.258 71.2147 167.258 71.2164C167.258 71.2181 167.258 71.2198 167.258 71.2215C167.258 71.2232 167.258 71.2249 167.258 71.2266C167.258 71.2283 167.258 71.2299 167.258 71.2316C167.258 71.2333 167.258 71.235 167.258 71.2367C167.258 71.2384 167.258 71.2401 167.258 71.2418C167.258 71.2435 167.258 71.2452 167.258 71.2469C167.258 71.2485 167.258 71.2502 167.258 71.2519C167.258 71.2536 167.258 71.2553 167.258 71.257C167.258 71.2586 167.258 71.2603 167.258 71.262C167.258 71.2637 167.258 71.2654 167.258 71.267C167.258 71.2687 167.258 71.2704 167.258 71.2721C167.258 71.2737 167.258 71.2754 167.258 71.2771C167.258 71.2788 167.258 71.2804 167.258 71.2821C167.258 71.2838 167.258 71.2854 167.258 71.2871C167.258 71.2888 167.258 71.2904 167.258 71.2921C167.258 71.2938 167.258 71.2954 167.258 71.2971C167.258 71.2988 167.258 71.3004 167.258 71.3021C167.258 71.3038 167.258 71.3054 167.258 71.3071C167.258 71.3087 167.258 71.3104 167.258 71.312C167.258 71.3137 167.258 71.3154 167.258 71.317C167.258 71.3187 167.258 71.3203 167.258 71.322C167.258 71.3236 167.258 71.3253 167.258 71.3269C167.258 71.3286 167.258 71.3302 167.258 71.3319C167.258 71.3335 167.258 71.3352 167.258 71.3368C167.258 71.3385 167.258 71.3401 167.258 71.3417C167.258 71.3434 167.258 71.345 167.258 71.3467C167.258 71.3483 167.258 71.35 167.258 71.3516C167.258 71.3532 167.258 71.3549 167.258 71.3565C167.258 71.3581 167.258 71.3598 167.258 71.3614C167.258 71.363 167.258 71.3647 167.258 71.3663C167.258 71.3679 167.258 71.3696 167.258 71.3712C167.258 71.3728 167.258 71.3745 167.258 71.3761C167.258 71.3777 167.258 71.3793 167.258 71.381C167.258 71.3826 167.258 71.3842 167.258 71.3858C167.258 71.3875 167.258 71.3891 167.258 71.3907C167.258 71.3923 167.258 71.3939 167.258 71.3956C167.258 71.3972 167.258 71.3988 167.258 71.4004C167.258 71.402 167.258 71.4036 167.258 71.4052C167.258 71.4069 167.258 71.4085 167.258 71.4101C167.258 71.4117 167.258 71.4133 167.258 71.4149C167.258 71.4165 167.258 71.4181 167.258 71.4197C167.258 71.4213 167.258 71.423 167.258 71.4246C167.258 71.4262 167.258 71.4278 167.258 71.4294C167.258 71.431 167.258 71.4326 167.258 71.4342C167.258 71.4358 167.258 71.4374 167.258 71.439C167.258 71.4406 167.258 71.4422 167.258 71.4437C167.258 71.4453 167.258 71.4469 167.258 71.4485C167.258 71.4501 167.258 71.4517 167.258 71.4533C167.258 71.4549 167.258 71.4565 167.258 71.4581C167.258 71.4597 167.258 71.4612 167.258 71.4628C167.258 71.4644 167.258 71.466 167.258 71.4676C167.258 71.4692 167.258 71.4708 167.258 71.4723C167.258 71.4739 167.258 71.4755 167.258 71.4771C167.258 71.4787 167.258 71.4802 167.258 71.4818C167.258 71.4834 167.258 71.485 167.258 71.4865C167.258 71.4881 167.258 71.4897 167.258 71.4913C167.258 71.4928 167.258 71.4944 167.258 71.496C167.258 71.4975 167.258 71.4991 167.258 71.5007C167.258 71.5022 167.258 71.5038 167.258 71.5054C167.258 71.5069 167.258 71.5085 167.258 71.5101C167.258 71.5116 167.258 71.5132 167.258 71.5148C167.258 71.5163 167.258 71.5179 167.258 71.5194C167.258 71.521 167.258 71.5225 167.258 71.5241C167.258 71.5257 167.258 71.5272 167.258 71.5288C167.258 71.5303 167.258 71.5319 167.258 71.5334C167.258 71.535 167.258 71.5365 167.258 71.5381C167.258 71.5396 167.258 71.5412 167.258 71.5427C167.258 71.5443 167.258 71.5458 167.258 71.5474C167.258 71.5489 167.258 71.5504 167.258 71.552C167.258 71.5535 167.258 71.5551 167.258 71.5566C167.258 71.5582 167.258 71.5597 167.258 71.5612C167.258 71.5628 167.258 71.5643 167.258 71.5658C167.258 71.5674 167.258 71.5689 167.258 71.5704C167.258 71.572 167.258 71.5735 167.258 71.575C167.258 71.5766 167.258 71.5781 167.258 71.5796C167.258 71.5812 167.258 71.5827 167.258 71.5842C167.258 71.5857 167.258 71.5873 167.258 71.5888C167.258 71.5903 167.258 71.5918 167.258 71.5934C167.258 71.5949 167.258 71.5964 167.258 71.5979C167.258 71.5994 167.258 71.601 167.258 71.6025C167.258 71.604 167.258 71.6055 167.258 71.607C167.258 71.6085 167.258 71.6101 167.258 71.6116C167.258 71.6131 167.258 71.6146 167.258 71.6161C167.258 71.6176 167.258 71.6191 167.258 71.6206C167.258 71.6221 167.258 71.6236 167.258 71.6251C167.258 71.6267 167.258 71.6282 167.258 71.6297C167.258 71.6312 167.258 71.6327 167.258 71.6342C167.258 71.6357 167.258 71.6372 167.258 71.6387C167.258 71.6402 167.258 71.6417 167.258 71.6432C167.258 71.6447 167.258 71.6462 167.258 71.6476C167.258 71.6491 167.258 71.6506 167.258 71.6521C167.258 71.6536 167.258 71.6551 167.258 71.6566C167.258 71.6581 167.258 71.6596 167.258 71.6611C167.258 71.6626 167.258 71.664 167.258 71.6655C167.258 71.667 167.258 71.6685 167.258 71.67C167.258 71.6715 167.258 71.6729 167.258 71.6744C167.258 71.6759 167.258 71.6774 167.258 71.6789C167.258 71.6803 167.258 71.6818 167.258 71.6833C167.258 71.6848 167.258 71.6862 167.258 71.6877C167.258 71.6892 167.258 71.6907 167.258 71.6921C167.258 71.6936 167.258 71.6951 167.258 71.6965C167.258 71.698 167.258 71.6995 167.258 71.701C167.258 71.7024 167.258 71.7039 167.258 71.7053C167.258 71.7068 167.258 71.7083 167.258 71.7097C167.258 71.7112 167.258 71.7127 167.258 71.7141C167.258 71.7156 167.258 71.717 167.258 71.7185C167.258 71.72 167.258 71.7214 167.258 71.7229C167.258 71.7243 167.258 71.7258 167.258 71.7272C167.258 71.7287 167.258 71.7301 167.258 71.7316C167.258 71.733 167.258 71.7345 167.258 71.7359C167.258 71.7374 167.258 71.7388 167.258 71.7403C167.258 71.7417 167.258 71.7432 167.258 71.7446C167.258 71.7461 167.258 71.7475 167.258 71.7489C167.258 71.7504 167.258 71.7518 167.258 71.7533C167.258 71.7547 167.258 71.7561 167.258 71.7576C167.258 71.759 167.258 71.7605 167.258 71.7619C167.258 71.7633 167.258 71.7648 167.258 71.7662C167.258 71.7676 167.258 71.7691 167.258 71.7705C167.258 71.7719 167.258 71.7733 167.258 71.7748C167.258 71.7762 167.258 71.7776 167.258 71.7791C167.258 71.7805 167.258 71.7819 167.258 71.7833C167.258 71.7847 167.258 71.7862 167.258 71.7876C167.258 71.789 167.258 71.7904 167.258 71.7919C167.258 71.7933 167.258 71.7947 167.258 71.7961C167.258 71.7975 167.258 71.7989 167.258 71.8004C167.258 71.8018 167.258 71.8032 167.258 71.8046C167.258 71.806 167.258 71.8074 167.258 71.8088C167.258 71.8102 167.258 71.8116 167.258 71.813C167.258 71.8145 167.258 71.8159 167.258 71.8173C167.258 71.8187 167.258 71.8201 167.258 71.8215C167.258 71.8229 167.258 71.8243 167.258 71.8257C167.258 71.8271 167.258 71.8285 167.258 71.8299C167.258 71.8313 167.258 71.8327 167.258 71.8341C167.258 71.8355 167.258 71.8369 167.258 71.8383C167.258 71.8397 167.258 71.841 167.258 71.8424C167.258 71.8438 167.258 71.8452 167.258 71.8466C167.258 71.848 167.258 71.8494 167.258 71.8508C167.258 71.8522 167.258 71.8535 167.258 71.8549C167.258 71.8563 167.258 71.8577 167.258 71.8591C167.258 71.8605 167.258 71.8618 167.258 71.8632C167.258 71.8646 167.258 71.866 167.258 71.8674C167.258 71.8687 167.258 71.8701 167.258 71.8715C167.258 71.8729 167.258 71.8742 167.258 71.8756C167.258 71.877 167.258 71.8784 167.258 71.8797C167.258 71.8811 167.258 71.8825 167.258 71.8838C167.258 71.8852 167.258 71.8866 167.258 71.8879C167.258 71.8893 167.258 71.8907 167.258 71.892C167.258 71.8934 167.258 71.8948 167.258 71.8961C167.258 71.8975 167.258 71.8988 167.258 71.9002C167.258 71.9016 167.258 71.9029 167.258 71.9043C167.258 71.9056 167.258 71.907 167.258 71.9083C167.258 71.9097 167.258 71.911 167.258 71.9124C167.258 71.9138 167.258 71.9151 167.258 71.9165C167.258 71.9178 167.258 71.9192 167.258 71.9205C167.258 71.9218 167.258 71.9232 167.258 71.9245C167.258 71.9259 167.258 71.9272 167.258 71.9286C167.258 71.9299 167.258 71.9313 167.258 71.9326C167.258 71.9339 167.258 71.9353 167.258 71.9366C167.258 71.938 167.258 71.9393 167.258 71.9406C167.258 71.942 167.258 71.9433 167.258 71.9446C167.258 71.946 167.258 71.9473 167.258 71.9486C167.258 71.95 167.258 71.9513 167.258 71.9526C167.258 71.954 167.258 71.9553 167.258 71.9566C167.258 71.9579 167.258 71.9593 167.258 71.9606C167.258 71.9619 167.258 71.9632 167.258 71.9646C167.258 71.9659 167.258 71.9672 167.258 71.9685C167.258 71.9699 167.258 71.9712 167.258 71.9725C167.258 71.9738 167.258 71.9751 167.258 71.9764C167.258 71.9778 167.258 71.9791 167.258 71.9804C167.258 71.9817 167.258 71.983 167.258 71.9843C167.258 71.9856 167.258 71.9869 167.258 71.9883C167.258 71.9896 167.258 71.9909 167.258 71.9922C167.258 71.9935 167.258 71.9948 167.258 71.9961C167.258 71.9974 167.258 71.9987 167.258 72H169.258ZM169.258 69.1V34H167.258V69.1H169.258ZM169.258 34C169.258 32.4719 169.291 31.3763 169.354 30.6905L167.362 30.5095C167.291 31.2903 167.258 32.4614 167.258 34H169.258ZM169.344 30.7644C169.457 30.0862 169.718 29.3155 170.152 28.4472L168.363 27.5528C167.864 28.5511 167.525 29.5138 167.371 30.4356L169.344 30.7644ZM170.146 28.4603C170.457 27.8588 171.089 27.3167 172.235 26.92C173.388 26.5207 174.981 26.3 177.058 26.3V24.3C174.868 24.3 173.027 24.5293 171.581 25.03C170.127 25.5333 168.991 26.3412 168.37 27.5397L170.146 28.4603ZM177.058 26.3C179.005 26.3 180.521 26.488 181.64 26.8311C182.76 27.1746 183.393 27.6448 183.72 28.1463L185.395 27.0537C184.722 26.0218 183.606 25.3421 182.226 24.9189C180.845 24.4954 179.11 24.3 177.058 24.3V26.3ZM183.734 28.1665C184.369 29.091 184.658 29.9968 184.658 30.9H186.658C186.658 29.5366 186.213 28.2423 185.382 27.0335L183.734 28.1665ZM186.472 31.4812C186.775 31.0571 187.214 30.5214 187.801 29.869L186.315 28.531C185.702 29.2119 185.208 29.8096 184.844 30.3188L186.472 31.4812ZM187.765 29.9071C188.319 29.3532 189.567 28.5126 191.639 27.3768L190.677 25.6232C188.615 26.754 187.13 27.7135 186.351 28.4929L187.765 29.9071ZM191.639 27.3768C193.63 26.2847 195.259 25.8 196.558 25.8V23.8C194.79 23.8 192.819 24.4487 190.677 25.6232L191.639 27.3768ZM196.558 25.8C198.122 25.8 199.389 25.8982 200.374 26.0829L200.742 24.1171C199.593 23.9018 198.194 23.8 196.558 23.8V25.8ZM200.434 26.0923C201.428 26.2166 202.535 26.4677 203.757 26.8536L204.359 24.9464C203.047 24.5323 201.821 24.2501 200.682 24.1077L200.434 26.0923ZM250.961 51.6L250.314 50.8375L249.404 51.6098L250.324 52.3706L250.961 51.6ZM264.261 62.6L264.904 61.8343L264.898 61.8294L264.261 62.6ZM267.361 65.8L266.483 66.2789L266.499 66.3084L266.517 66.3369L267.361 65.8ZM264.961 74.4L265.738 75.0292L265.749 75.0163L265.759 75.0031L264.961 74.4ZM252.861 75.7L253.458 74.8975L253.446 74.889L253.434 74.8808L252.861 75.7ZM251.861 75L251.224 75.771L251.255 75.7964L251.287 75.8192L251.861 75ZM244.761 68.4L244.054 69.1071L244.061 69.1145L244.761 68.4ZM237.461 61.6L238.086 60.8191L236.461 59.5194V61.6H237.461ZM237.261 72.8L236.275 72.6356L236.268 72.6724L236.265 72.7095L237.261 72.8ZM236.361 75.4L235.479 74.9294L235.472 74.941L235.467 74.9528L236.361 75.4ZM220.961 75.3L220.055 75.7229L220.064 75.7418L220.073 75.7603L220.961 75.3ZM220.061 72.7L219.064 72.783L219.068 72.8313L219.077 72.8789L220.061 72.7ZM220.061 5.9L219.075 5.7356L219.068 5.77235L219.065 5.80946L220.061 5.9ZM220.961 3.2L220.073 2.73968L220.064 2.7582L220.055 2.77711L220.961 3.2ZM235.561 2.2L234.913 2.96194L234.919 2.96698L234.925 2.97193L235.561 2.2ZM237.361 6.6L236.361 6.63331L236.363 6.67198L236.367 6.71043L237.361 6.6ZM237.461 41.1H236.461V43.235L238.101 41.8682L237.461 41.1ZM242.861 36L242.164 35.2832L242.154 35.2929L242.861 36ZM248.361 30.9L247.806 30.0679L247.762 30.0976L247.721 30.1318L248.361 30.9ZM249.561 30.1L250.116 30.932L250.144 30.9129L250.172 30.8918L249.561 30.1ZM261.261 31.5L260.473 32.1153L260.481 32.1259L260.49 32.1364L261.261 31.5ZM260.861 43.2L260.219 42.4335L260.214 42.4375L260.861 43.2ZM250.324 52.3706L263.624 63.3706L264.898 61.8294L251.598 50.8294L250.324 52.3706ZM263.618 63.3657C265.295 64.7748 266.185 65.7325 266.483 66.2789L268.239 65.3211C267.737 64.4009 266.56 63.2252 264.904 61.8343L263.618 63.3657ZM266.517 66.3369C266.912 66.9577 267.061 67.4733 267.061 67.9H269.061C269.061 66.9934 268.743 66.109 268.205 65.2631L266.517 66.3369ZM267.061 67.9C267.061 68.4954 266.865 69.2843 266.383 70.2945C265.905 71.2972 265.172 72.4633 264.163 73.7969L265.759 75.0031C266.817 73.6034 267.633 72.3195 268.189 71.1555C268.74 69.9991 269.061 68.9046 269.061 67.9H267.061ZM264.184 73.7708C263.084 75.1293 262.084 76.1032 261.187 76.7308C260.289 77.3595 259.554 77.6 258.961 77.6V79.6C260.101 79.6 261.233 79.1405 262.334 78.3692C263.438 77.5968 264.571 76.4707 265.738 75.0292L264.184 73.7708ZM258.961 77.6C258.434 77.6 257.713 77.4223 256.765 76.9719C255.827 76.5258 254.726 75.8407 253.458 74.8975L252.264 76.5025C253.596 77.4927 254.812 78.2575 255.907 78.7781C256.992 79.2944 258.021 79.6 258.961 79.6V77.6ZM253.434 74.8808L252.434 74.1808L251.287 75.8192L252.287 76.5192L253.434 74.8808ZM252.498 74.229C251 72.9915 248.659 70.8172 245.461 67.6855L244.061 69.1145C247.263 72.2494 249.656 74.4752 251.224 75.771L252.498 74.229ZM245.468 67.6929C242.264 64.4889 239.798 62.1891 238.086 60.8191L236.836 62.3809C238.457 63.6775 240.858 65.9111 244.054 69.1071L245.468 67.6929ZM236.461 61.6V69.3H238.461V61.6H236.461ZM236.461 69.3C236.461 70.8176 236.394 71.9184 236.275 72.6356L238.247 72.9644C238.394 72.0816 238.461 70.8491 238.461 69.3H236.461ZM236.265 72.7095C236.215 73.2578 235.979 73.9903 235.479 74.9294L237.243 75.8706C237.809 74.8097 238.173 73.8088 238.257 72.8905L236.265 72.7095ZM235.467 74.9528C235.192 75.5028 234.6 76.0196 233.466 76.4026C232.327 76.787 230.741 77 228.661 77V79C230.848 79 232.678 78.7797 234.106 78.2974C235.538 77.8138 236.664 77.0306 237.255 75.8472L235.467 74.9528ZM228.661 77C226.619 77 225.052 76.7795 223.917 76.3813C222.79 75.9862 222.163 75.4453 221.849 74.8397L220.073 75.7603C220.692 76.9547 221.815 77.7638 223.255 78.2687C224.686 78.7705 226.503 79 228.661 79V77ZM221.867 74.8771C221.421 73.9214 221.157 73.1403 221.045 72.5211L219.077 72.8789C219.231 73.7264 219.567 74.6786 220.055 75.7229L221.867 74.8771ZM221.057 72.617C220.994 71.8592 220.961 70.7257 220.961 69.2H218.961C218.961 70.741 218.994 71.9408 219.064 72.783L221.057 72.617ZM220.961 69.2V9.3H218.961V69.2H220.961ZM220.961 9.3C220.961 7.7719 220.994 6.67631 221.057 5.99053L219.065 5.80946C218.994 6.59035 218.961 7.76143 218.961 9.3H220.961ZM221.047 6.0644C221.162 5.37937 221.426 4.56813 221.867 3.62288L220.055 2.77711C219.563 3.83186 219.227 4.82062 219.075 5.7356L221.047 6.0644ZM221.849 3.66031C222.161 3.05876 222.792 2.51666 223.938 2.11998C225.091 1.72072 226.685 1.5 228.761 1.5V-0.500004C226.571 -0.500004 224.73 -0.270727 223.284 0.230011C221.83 0.733337 220.695 1.54124 220.073 2.73968L221.849 3.66031ZM228.761 1.5C231.898 1.5 233.86 2.0664 234.913 2.96194L236.209 1.43806C234.595 0.0669302 232.024 -0.500004 228.761 -0.500004V1.5ZM234.925 2.97193C235.765 3.66326 236.301 4.81134 236.361 6.63331L238.36 6.56668C238.288 4.38865 237.624 2.6034 236.197 1.42807L234.925 2.97193ZM236.367 6.71043C236.427 7.25232 236.461 8.13937 236.461 9.4H238.461C238.461 8.12729 238.428 7.14767 238.355 6.48957L236.367 6.71043ZM236.461 9.4V41.1H238.461V9.4H236.461ZM238.101 41.8682C239.338 40.8372 241.165 39.1097 243.568 36.7071L242.154 35.2929C239.756 37.6903 237.984 39.3628 236.821 40.3318L238.101 41.8682ZM243.558 36.7167C246.023 34.3186 247.833 32.6418 249.001 31.6682L247.721 30.1318C246.489 31.1582 244.632 32.8814 242.164 35.2833L243.558 36.7167ZM248.916 31.732L250.116 30.932L249.006 29.2679L247.806 30.0679L248.916 31.732ZM250.172 30.8918C252.45 29.1345 254.23 28.4 255.561 28.4V26.4C253.559 26.4 251.339 27.4655 248.95 29.3082L250.172 30.8918ZM255.561 28.4C256.115 28.4 256.805 28.6278 257.652 29.2368C258.497 29.8449 259.439 30.7911 260.473 32.1153L262.049 30.8847C260.949 29.4755 259.874 28.3717 258.82 27.6132C257.766 26.8555 256.673 26.4 255.561 26.4V28.4ZM260.49 32.1364C261.564 33.4383 262.343 34.5711 262.85 35.539C263.362 36.5168 263.561 37.2596 263.561 37.8H265.561C265.561 36.8071 265.21 35.7332 264.622 34.611C264.029 33.4789 263.158 32.2284 262.032 30.8636L260.49 32.1364ZM263.561 37.8C263.561 38.2961 263.36 38.9336 262.811 39.7348C262.264 40.5333 261.412 41.4337 260.219 42.4335L261.503 43.9665C262.777 42.8996 263.775 41.8667 264.461 40.8652C265.145 39.8664 265.561 38.8372 265.561 37.8H263.561ZM260.214 42.4375L250.314 50.8375L251.608 52.3625L261.508 43.9625L260.214 42.4375Z" fill="#2644F5"/>
</svg>
